<?xml version="1.0" standalone="no"?>
<!DOCTYPE svg PUBLIC "-//W3C//DTD SVG 1.1//EN" "http://www.w3.org/Graphics/SVG/1.1/DTD/svg11.dtd" >
<!--
2013-9-30: Created.
-->
<svg>
<metadata>
Created by iconfont
</metadata>
<defs>

<font id="iconfont" horiz-adv-x="1024" >
  <font-face
    font-family="iconfont"
    font-weight="500"
    font-stretch="normal"
    units-per-em="1024"
    ascent="896"
    descent="-128"
  />
    <missing-glyph />
    
    <glyph glyph-name="xiegang" unicode="&#58995;" d="M291.328 2.048c-29.184 16.896-39.424 54.784-22.528 83.968l379.904 657.92c16.896 29.184 54.784 39.424 83.968 22.528 29.184-16.896 39.424-54.784 22.528-83.968L375.296 24.576c-16.896-29.184-54.784-39.424-83.968-22.528z"  horiz-adv-x="1024" />

    
    <glyph glyph-name="queren" unicode="&#58994;" d="M980.48 611.84c23.04 23.04 23.552 60.928 0.512 83.456-23.04 23.04-60.416 22.528-83.456-0.512l-499.2-499.2-272.384 272.896c-23.04 23.04-60.928 23.552-83.456 0.512-23.04-23.04-22.528-60.416 0.512-83.456l313.344-313.344c23.04-23.04 60.928-23.552 83.456-0.512l0.512 0.512 0.512 0.512L980.48 611.84z"  horiz-adv-x="1024" />

    
    <glyph glyph-name="xitongshezhi" unicode="&#58993;" d="M411.648-92.16l-40.448 116.736-51.712 25.088-116.224-40.96-125.44 157.696L143.36 270.336l-12.8 55.808L26.112 391.68l44.544 196.096 122.88 13.824 35.84 44.544-14.336 122.88L396.288 856.576l87.04-87.552h57.344l87.04 87.552L808.96 769.024l-14.336-122.368 35.84-45.056 122.88-13.824 44.544-196.096-104.448-65.536-12.8-55.808 66.048-104.448-125.44-157.696-116.224 40.96-51.712-25.088-40.448-116.736-201.216 0.512z m43.008 60.928h114.688l34.816 99.328 97.28 46.592 99.328-34.816 71.68 89.6-56.32 89.088 24.064 104.96 89.6 55.808-25.6 112.128-104.96 11.776L732.16 628.224l11.776 104.96-103.424 49.664-74.24-74.752H458.24L384 782.848l-103.424-49.664 11.776-104.96L225.28 543.744l-104.96-11.776-25.6-112.128L184.32 364.032l24.064-104.96-56.32-89.088 71.68-90.112 99.328 34.816 97.28-46.592 34.304-99.328z m57.344 231.936c-100.352 0-182.272 81.92-182.272 182.272s81.92 182.272 182.272 182.272 182.272-81.92 182.272-182.272c0.512-100.864-81.408-182.272-182.272-182.272z m0 308.736c-69.632 0-126.464-56.832-126.464-126.464s56.832-126.464 126.464-126.464 126.464 56.832 126.464 126.464c0.512 69.632-56.32 126.464-126.464 126.464z"  horiz-adv-x="1024" />

    
    <glyph glyph-name="dai" unicode="&#58918;" d="M512-96A480 480 0 1 0 992 384 480 480 0 0 0 512-96z m0 895.99999969A415.99999969 415.99999969 0 1 1 927.99999969 384 416.64 416.64 0 0 1 512 799.99999969zM748.16 325.12000031H480.00000031V621.4399996899999a31.99999969 31.99999969 0 1 0 63.99999938 0v-232.32h204.16000031a31.99999969 31.99999969 0 0 0 31.99999969-31.99999969 32.64 32.64 0 0 0-31.99999969-31.99999969z"  horiz-adv-x="1024" />

    
    <glyph glyph-name="ziyuan12" unicode="&#58919;" d="M512-96A480 480 0 1 0 992 384 480 480 0 0 0 512-96z m0 895.99999969A415.99999969 415.99999969 0 1 1 927.99999969 384 416.64 416.64 0 0 1 512 799.99999969zM473.6 216.96000000000004l-127.99999969 122.23999969a31.36000031 31.36000031 0 0 0 0 44.80000031 31.99999969 31.99999969 0 0 0 45.43999969 0l81.28000031-76.8 177.91999969 182.4a31.99999969 31.99999969 0 1 0 45.43999969-44.80000031z"  horiz-adv-x="1024" />

    
    <glyph glyph-name="weitongguo" unicode="&#58920;" d="M512-96A480 480 0 1 0 992 384 480 480 0 0 0 512-96z m0 895.99999969A415.99999969 415.99999969 0 1 1 927.99999969 384 416.64 416.64 0 0 1 512 799.99999969zM377.6 217.60000031000004A32.64 32.64 0 0 0 351.99999969 223.99999968999998a31.99999969 31.99999969 0 0 0 0 44.80000031l269.44000031 268.8a31.36000031 31.36000031 0 0 0 44.80000031-44.80000031L399.99999969 223.99999968999998a31.36000031 31.36000031 0 0 0-22.39999969-6.39999938zM646.4 217.60000031000004a30.07999969 30.07999969 0 0 0-22.39999969 6.39999938l-268.8 268.8a31.36000031 31.36000031 0 0 0 44.79999938 44.80000031L672.00000031 271.99999969a30.72 30.72 0 0 0 0-44.79999938 30.07999969 30.07999969 0 0 0-25.60000031-9.6z"  horiz-adv-x="1024" />

    
    <glyph glyph-name="tianjia" unicode="&#59218;" d="M864 896H160C70.4 896 0 825.6 0 736v-704c0-89.6 70.4-160 160-160h704c89.6 0 160 70.4 160 160V736c0 89.6-70.4 160-160 160z m96-864c0-54.4-41.6-96-96-96H160c-54.4 0-96 41.6-96 96V736c0 54.4 41.6 96 96 96h704c54.4 0 96-41.6 96-96v-704zM768 416h-224V640c0 19.2-12.8 32-32 32s-32-12.8-32-32v-224H256c-19.2 0-32-12.8-32-32s12.8-32 32-32h224v-224c0-19.2 12.8-32 32-32s32 12.8 32 32v224h224c19.2 0 32 12.8 32 32s-12.8 32-32 32z"  horiz-adv-x="1024" />

    
    <glyph glyph-name="baofei" unicode="&#58992;" d="M923.136 634.88v-567.296c0-92.16-75.264-167.424-167.424-167.424H257.536c-92.16 0-167.424 75.264-167.424 167.424V634.88c0 15.872-12.8 29.184-29.184 29.184H49.664c-15.872 0-29.184 12.8-29.184 29.184v11.776c0 15.872 12.8 29.184 29.184 29.184h150.528c15.872 0 29.184 12.8 29.184 29.184v11.776C229.376 829.44 273.408 873.472 327.68 873.472h358.912c54.272 0 98.304-44.032 98.304-98.304V762.88c0-15.872 12.8-29.184 29.184-29.184h150.528c15.872 0 29.184-12.8 29.184-29.184v-12.288c0-15.872-12.8-29.184-29.184-29.184H952.32c-16.384 0.512-29.184-12.288-29.184-28.16zM686.08 802.304H327.68c-15.872 0-29.184-12.8-29.184-29.184v-11.776c0-15.872 12.8-29.184 29.184-29.184h358.912c15.872 0 29.184 12.8 29.184 29.184V773.12c-1.024 16.384-13.824 29.184-29.696 29.184z m138.752-138.752H188.416c-15.872 0-29.184-12.8-29.184-29.184v-567.296c0-54.272 44.032-98.304 98.304-98.304h497.152c54.272 0 98.304 44.032 98.304 98.304V634.88c0 15.872-12.8 28.672-28.16 28.672z m-220.16-138.752h11.776c15.872 0 29.184-12.8 29.184-29.184v-358.912c0-15.872-12.8-29.184-29.184-29.184h-11.776c-15.872 0-29.184 12.8-29.184 29.184V496.128c0.512 15.872 13.312 28.672 29.184 28.672z m-207.872 0h11.776c15.872 0 29.184-12.8 29.184-29.184v-358.912c0-15.872-12.8-29.184-29.184-29.184h-11.776c-15.872 0-29.184 12.8-29.184 29.184V496.128c0 15.872 12.8 28.672 29.184 28.672z"  horiz-adv-x="1024" />

    
    <glyph glyph-name="xinxichaxun" unicode="&#58991;" d="M458.752-99.84H181.76c-76.288 0-138.752 62.464-138.752 138.752V734.208C43.52 810.496 105.472 872.96 181.76 872.96h585.728c76.288 0 138.752-62.464 138.752-138.752v-276.992c0-19.456-15.36-34.816-34.816-34.816s-34.816 15.36-34.816 34.816V734.208c0 37.888-31.232 69.632-69.632 69.632H181.76c-37.888 0-69.632-31.232-69.632-69.632v-694.784c0-37.888 31.232-69.632 69.632-69.632h276.992c19.456 0 34.816-15.36 34.816-34.816 0-19.968-15.872-34.816-34.816-34.816zM681.984-36.864c-117.76 0-213.504 95.744-213.504 213.504s95.744 213.504 213.504 213.504 213.504-95.744 213.504-213.504-96.256-213.504-213.504-213.504z m0 356.864c-79.36 0-143.36-64.512-143.36-143.36s64.512-143.36 143.36-143.36 143.36 64.512 143.36 143.36-64 143.36-143.36 143.36z m-97.792 287.232h-348.16c-19.456 0-34.816 15.36-34.816 34.816s15.872 34.816 34.816 34.816h348.16c19.456 0 34.816-15.36 34.816-34.816s-15.36-34.816-34.816-34.816zM417.28 434.688H236.544c-19.456 0-34.816 15.36-34.816 34.816s15.36 34.816 34.816 34.816h181.248c19.456 0 34.816-15.36 34.816-34.816-0.512-18.944-15.872-34.816-35.328-34.816zM911.36-87.552L813.568 10.24c-13.312 13.312-13.312 35.84 0 49.152s35.84 13.312 49.152 0l97.792-97.792c13.312-13.312 13.312-35.84 0-49.152-13.824-13.312-35.84-13.312-49.152 0z"  horiz-adv-x="1024" />

    
    <glyph glyph-name="jiaolianyuan" unicode="&#58990;" d="M82.432-44.544C90.624 76.8 149.504 189.44 243.712 266.24l6.144 4.096c5.12 3.072 11.264 4.608 17.92 4.608 22.016 0 34.816-10.24 34.816-29.184 0-10.24-4.608-20.48-12.8-26.624l-4.608-3.072c-79.36-56.832-124.416-146.432-133.12-261.632v-3.584c0-19.456-15.36-35.328-34.304-35.84-18.432 0.512-33.792 15.36-34.816 33.792l-0.512 6.656zM194.048 549.888C193.536 724.992 335.36 867.84 510.464 869.376c177.152-2.56 318.464-147.456 316.416-324.608-1.024-92.16-42.496-180.224-112.64-240.128 130.048-72.192 215.04-205.824 224.256-353.792v-7.68c1.536-16.896-10.752-30.208-27.136-31.744-16.896-1.536-30.208 10.752-31.744 27.136v11.776c-9.216 139.264-95.744 261.12-223.232 315.904-45.568-22.016-95.232-33.792-145.408-35.84-47.616 0-94.72 10.752-136.704 31.744l-31.744 19.456-26.112 17.92c-77.824 60.928-122.368 152.576-122.368 250.368z m316.928-255.488c140.8-1.536 256.512 111.616 258.56 252.928 1.536 140.8-111.616 256.512-252.928 258.56-141.824 1.536-257.024-111.616-258.56-253.44v-2.56c-0.512-140.8 112.128-254.464 252.928-255.488zM526.848-94.208c-10.752-11.264-29.696-11.776-40.96-1.024l-74.752 71.68c-12.288 12.8-18.432 30.72-16.896 48.64l26.624 163.328c3.072 15.872 16.896 28.16 33.28 29.184h99.84c16.896-0.512 29.696-12.288 32.768-29.184l20.48-163.84c1.024-17.92-4.096-35.84-16.896-49.664l-63.488-69.12z m-72.704 137.728c-2.048-17.92-3.072-32.768 16.896-48.64l14.336-13.824c18.432-19.968 29.696-10.24 40.448 0.512l0.512 0.512 10.24 10.752c21.504 18.432 17.408 31.744 16.896 49.664l-11.776 90.624c-2.56 16.896-8.192 29.184-32.768 29.184h-6.144c-25.6 0-30.208-12.288-33.28-29.184l-15.36-89.6z"  horiz-adv-x="1024" />

    
    <glyph glyph-name="baomi" unicode="&#58989;" d="M329.216 498.176c0-92.16 70.144-168.96 158.208-181.248v-207.872c0-16.384 14.336-30.72 30.72-30.72s30.72 14.336 30.72 30.72v92.16h72.192c16.384 0 30.72 14.336 30.72 30.72s-14.336 30.72-30.72 30.72h-72.192v55.808c82.432 16.384 145.92 90.112 145.92 179.2 0 100.864-82.432 183.296-183.296 183.296S329.216 599.04 329.216 498.176z m183.296 121.856c68.096 0 121.344-53.76 121.344-121.344 0-68.096-53.76-121.344-121.344-121.344S390.656 430.592 390.656 498.176s53.76 121.856 121.856 121.856zM899.072 743.424L518.144 866.816c-6.144 2.048-12.288 2.048-18.432 0L119.296 743.424c-12.288-4.096-20.48-16.384-20.48-28.672v-481.28c2.048-16.384 24.576-160.256 399.36-335.36 4.096-2.048 8.192-2.048 12.288-2.048 4.096 0 8.192 0 12.288 2.048 372.736 175.104 397.312 318.976 399.36 335.36v481.28c-2.56 11.776-10.752 24.576-23.04 28.672z m-41.472-506.368c-2.048-10.24-37.376-127.488-349.696-277.504-314.88 150.016-347.648 267.264-349.696 277.504V691.712l349.696 115.2 349.696-115.2v-454.656z"  horiz-adv-x="1024" />

    
    <glyph glyph-name="caigou" unicode="&#58987;" d="M947.712 471.04c28.16 6.144 48.64 30.72 48.64 59.392V750.08c0 15.872-3.072 31.232-9.216 45.568-6.144 13.824-14.336 26.624-25.088 37.376-10.24 10.24-23.04 19.456-37.376 25.088-14.336 6.144-29.696 9.216-45.568 9.216H142.336c-15.872 0-31.232-3.072-45.568-9.216-13.824-6.144-26.624-14.336-37.376-25.088-10.24-11.264-19.456-23.04-25.088-37.376s-9.216-29.696-9.216-45.568v-219.648c0-28.672 19.968-53.248 48.128-59.392 41.472-8.704 71.68-46.08 71.68-89.088s-30.208-79.872-71.68-89.088c-28.16-6.144-48.128-30.72-48.128-59.392v-219.648c0-15.872 3.072-31.232 9.216-45.568 6.144-13.824 14.336-26.624 25.088-37.376 11.264-10.24 23.04-19.456 37.376-25.088s29.696-9.216 45.568-9.216h736.256c15.872 0 31.232 3.072 45.568 9.216 13.824 6.144 26.624 14.336 37.376 25.088 10.24 10.24 19.456 23.04 25.088 37.376 6.144 14.336 9.216 29.696 9.216 45.568v219.648c0 28.672-20.48 53.76-48.64 59.392-42.496 8.192-72.704 46.08-72.704 89.088s31.232 80.896 73.216 89.088z m-12.288-238.08v-219.648c0-31.232-25.088-56.832-56.832-56.832H142.336c-31.232 0-56.832 25.088-56.832 56.832v219.648c68.096 14.848 119.296 75.264 119.296 148.48s-51.2 133.12-119.296 147.968V750.08c0 31.232 25.088 56.832 56.832 56.832h736.256c31.232 0 56.832-25.088 56.832-56.832v-219.648c-69.632-13.824-121.344-75.264-121.344-148.48s52.736-135.168 121.344-148.992zM358.912 350.72c-16.384 0-30.208-13.824-30.208-30.208s13.824-30.208 30.208-30.208h121.344v-91.136c0-16.384 13.824-30.208 30.208-30.208s30.208 13.824 30.208 30.208v91.136h121.344c16.384 0 30.208 13.824 30.208 30.208s-13.824 30.208-30.208 30.208h-121.344V411.648h121.344c16.384 0 30.208 13.824 30.208 30.208s-13.824 30.208-30.208 30.208H583.68l70.144 69.632c12.288 12.288 12.288 30.72 0 43.008s-30.72 12.288-43.008 0L510.464 484.864 410.112 586.24c-12.288 12.288-30.72 12.288-43.008 0-12.288-12.288-12.288-30.72 0-43.008l71.168-71.168H358.912c-16.384 0-30.208-13.824-30.208-30.208s13.824-30.208 30.208-30.208h121.344v-60.416H358.912z"  horiz-adv-x="1024" />

    
    <glyph glyph-name="jiaoxuexuqiu" unicode="&#58988;" d="M872.96 868.352H147.968c-59.392 0-105.984-42.496-105.984-96.768v-751.616c0-10.24 5.632-17.92 9.728-22.016l89.6-91.648c11.776-11.776 29.696-12.8 43.008-2.048l97.28 77.312 97.28-77.312c12.288-10.24 27.136-10.24 39.424 0l95.232 76.288 95.232-76.288c12.288-10.24 27.136-10.24 39.424 0l95.232 76.288 95.232-77.312c7.68-5.12 12.288-7.68 19.968-7.68s17.408 5.12 19.456 10.24l90.624 91.136c9.728 6.144 10.24 18.944 10.24 23.04V771.584c-0.512 54.272-47.104 96.768-105.984 96.768z m49.664-96.768v-741.376l-64-61.952-95.232 73.728c-12.288 10.24-27.136 10.24-39.424 0l-95.232-76.288-95.232 77.312c-12.288 10.24-27.136 10.24-39.424 0l-94.208-76.288-96.768 76.288c-5.12 5.12-11.776 7.68-20.48 7.68-5.12 0-12.288 0-17.408-5.632l-95.232-73.728-61.44 61.44V771.584c0 18.432 18.944 33.792 43.008 33.792h728.064c24.064 0 43.008-14.848 43.008-33.792zM238.08 614.4h233.984c17.408 0 31.232 14.336 31.232 31.232s-14.336 31.232-31.232 31.232H238.08c-17.408 0-31.232-14.336-31.232-31.232s13.824-31.232 31.232-31.232z m0-160.768h392.192c17.408 0 31.232 14.336 31.232 31.232 0 17.408-14.336 31.232-31.232 31.232H238.08c-17.408 0-31.232-14.336-31.232-31.232 0-17.408 13.824-31.232 31.232-31.232z m557.056-99.84H230.912c-17.408 0-31.232-14.336-31.232-31.232s14.336-31.232 31.232-31.232h564.224c17.408 0 31.232 14.336 31.232 31.232s-13.824 31.232-31.232 31.232z"  horiz-adv-x="1024" />

    
    <glyph glyph-name="jiaoxuerenwuguanli" unicode="&#58986;" d="M509.44 837.12c0-16.896-12.8-31.232-30.208-32.256-221.696-15.36-395.776-202.752-390.144-429.056 5.12-222.72 186.368-404.992 409.6-410.624 226.816-5.632 414.72 168.96 430.08 390.144 1.024 16.896 15.36 30.208 32.256 30.208 18.432 0 33.792-15.36 32.256-34.304-17.408-253.952-231.424-454.656-491.008-451.584-261.632 4.096-474.624 217.6-478.72 478.208C19.968 638.464 220.672 851.968 475.136 869.888c18.432 1.024 34.304-13.824 34.304-32.768z m0-260.096c0-15.872-11.264-29.696-27.136-32.256-80.384-12.8-139.776-85.504-134.144-169.984 5.12-79.872 69.12-143.872 148.48-150.016 85.504-6.144 157.696 53.76 171.52 134.144 2.56 15.36 15.872 27.136 32.256 27.136 19.968 0 35.328-17.92 32.256-37.888-17.92-110.08-115.712-193.024-231.936-188.928-117.76 4.096-212.992 99.84-217.6 217.6-4.608 116.736 78.848 214.528 188.928 232.448 18.944 2.56 37.376-12.288 37.376-32.256z m199.68-44.032l-180.736-175.104c-12.8-12.288-33.28-11.776-45.568 0.512l-0.512 0.512c-12.288 12.288-12.288 32.768 0 45.056l0.512 0.512 180.224 174.592-40.448 97.28 190.464 190.464 54.272-130.56 129.024-52.736-190.464-190.464-96.768 39.936z m-9.728 128l27.136-64.512 64.512-27.136L882.176 660.48l-64 25.6-27.648 65.536-91.136-90.624z"  horiz-adv-x="1024" />

    
    <glyph glyph-name="xiangmujiansheguanli" unicode="&#58985;" d="M970.24 758.272c-0.512 30.72-12.8 58.88-33.28 79.872-21.504 21.504-50.176 33.28-79.872 33.28L161.792 870.4c-27.136 0-48.64-22.016-48.64-48.64v-111.104h-30.72c-17.92 0-32.768-14.848-32.768-32.768 0-17.92 14.848-32.768 32.768-32.768h30.72v-123.392h-30.72c-17.92 0-32.768-14.848-32.768-32.768 0-17.92 14.848-32.768 32.768-32.768h30.72V332.8h-30.208c-17.92 0-32.768-14.848-32.768-32.768 0-17.92 14.848-32.768 32.768-32.768h30.208v-123.392h-30.208c-17.92 0-32.768-14.848-32.768-32.768 0-17.92 14.848-32.768 32.768-32.768h30.208v-128.512c0-27.136 22.016-48.64 48.64-48.64l695.808 0.512c61.952 0 112.64 50.688 112.64 112.64V758.272zM783.36 805.376h72.704c27.648-0.512 48.128-20.992 48.128-47.104v-745.472c0-27.136-21.504-48.64-48.128-48.64H783.36V805.376zM271.36 110.08c0 17.92-14.848 32.768-32.768 32.768H177.664v122.88h60.416c17.92 0 32.768 14.848 32.768 32.768 0 17.92-14.848 32.768-32.768 32.768H177.664V455.68h60.416c17.92 0 32.768 14.848 32.768 32.768 0 17.92-14.848 32.768-32.768 32.768H178.176V645.12h59.904c17.92 0 32.768 14.848 32.768 32.768s-14.848 32.768-32.768 32.768H178.688v76.8c0 9.216 7.68 16.896 16.896 16.896h521.728V-35.84h-522.24c-9.728 0-17.408 7.68-17.408 17.408v95.744h60.928c17.92 0 32.768 14.848 32.768 32.768z"  horiz-adv-x="1024" />

    
    <glyph glyph-name="yiqi" unicode="&#58960;" d="M25.6 710.144v-698.88c0-37.888 25.6-63.488 65.024-63.488h842.752c38.4 0 65.024 25.088 65.024 63.488V710.144c0 37.888-25.6 63.488-65.024 63.488H90.624C51.712 773.12 25.6 748.032 25.6 710.144z m65.024 0h842.752v-190.464H90.624V710.144z m842.752-699.392H90.624v190.464h842.752v-190.464zM90.624 264.704V456.192h842.752v-190.464l-842.752-1.024z m680.448 381.952h65.024c19.456 0 32.256-12.8 32.256-31.744 0-19.456-12.8-31.744-32.256-31.744h-65.024c-19.456 0-32.256 12.8-32.256 31.744s13.312 31.744 32.256 31.744z m97.28-286.208c0-19.456-12.8-31.744-32.256-31.744h-65.024c-19.456 0-32.256 12.8-32.256 31.744s12.8 31.744 32.256 31.744h65.024c19.456 0 32.256-12.288 32.256-31.744z m-129.024-253.952c0 19.456 12.8 31.744 32.256 31.744h65.024c19.456 0 32.256-12.8 32.256-31.744 0-19.456-12.8-31.744-32.256-31.744h-65.024c-19.456-0.512-32.256 12.288-32.256 31.744z"  horiz-adv-x="1024" />

    
    <glyph glyph-name="yuyue" unicode="&#58983;" d="M512 870.4C243.2 870.4 25.6 652.8 25.6 384s217.6-486.4 486.4-486.4 486.4 217.6 486.4 486.4-217.6 486.4-486.4 486.4z m0-903.168c-230.4 0-416.768 186.88-416.768 416.768S281.6 800.768 512 800.768 928.768 614.4 928.768 384 742.4-32.768 512-32.768zM685.568 384H512V627.2c0 18.944-15.36 34.816-34.816 34.816-18.944 0-34.816-15.36-34.816-34.816v-312.832h243.2c18.944 0 34.816 15.36 34.816 34.816s-15.36 34.816-34.816 34.816z"  horiz-adv-x="1024" />

    
    <glyph glyph-name="xiaozhun" unicode="&#58984;" d="M960 572.928c-25.6 59.904-60.416 111.616-103.424 155.136-43.52 43.52-95.232 77.824-155.136 103.424s-122.88 38.4-188.928 38.4c-66.048 0-129.024-12.8-188.928-38.4S211.968 771.584 168.448 728.064 90.624 632.832 65.024 572.928C38.4 513.024 25.6 450.048 25.6 384c0-66.048 12.8-129.024 38.4-188.928s60.416-111.616 103.424-155.136c43.52-43.52 95.232-78.336 155.136-103.936s122.88-38.4 188.928-38.4 129.024 12.8 188.928 38.4 111.616 60.416 155.136 103.936 77.824 95.232 103.424 155.136 38.4 122.88 38.4 188.928c1.024 66.048-11.776 129.024-37.376 188.928z m-203.264-221.696c9.216-8.704 19.968-13.312 32.768-13.312h136.192c-5.12-47.616-18.432-92.672-39.424-135.68-20.992-43.008-47.616-80.384-79.872-112.64-32.256-32.256-69.632-58.88-112.64-79.872s-88.064-33.792-135.68-39.424v136.192c0 12.8-4.608 23.552-13.824 32.768-9.216 9.216-19.968 13.312-32.768 13.312-12.8 0-23.552-4.608-32.768-13.312-9.216-9.216-13.824-19.968-13.824-32.768v-136.192c-47.616 5.12-92.672 18.432-135.68 39.424-42.496 20.992-80.384 47.616-112.64 79.872-32.256 32.256-58.88 69.632-79.872 112.64-20.992 42.496-34.304 88.064-39.424 135.68h136.192c12.8 0 23.552 4.608 32.768 13.312 9.216 9.216 13.312 19.968 13.312 32.768 0 12.8-4.608 23.552-13.312 32.768-9.216 9.216-19.968 13.824-32.768 13.824H98.816c5.12 47.616 18.432 92.672 39.424 135.168 20.992 43.008 47.616 80.384 79.872 112.64 32.256 32.256 69.632 58.88 112.64 79.872 42.496 20.992 88.064 33.792 135.68 39.424v-136.192c0-12.8 4.608-23.552 13.824-32.768 9.216-9.216 19.968-13.312 32.768-13.312 12.8 0 23.552 4.608 32.768 13.312 9.216 9.216 13.824 19.968 13.824 32.768V797.696c47.616-5.12 92.672-18.432 135.68-39.424 42.496-20.992 80.384-47.616 112.64-79.872 32.256-32.256 58.88-69.632 79.872-112.64 20.992-42.496 34.304-88.064 39.424-135.68h-136.192c-12.8 0-23.552-4.608-32.768-13.824-9.216-9.216-13.824-19.968-13.824-32.768-1.536-12.288 3.072-23.04 12.288-32.256z"  horiz-adv-x="1024" />

    
    <glyph glyph-name="jiaocaikucun" unicode="&#58945;" d="M889.856 608.256H77.824l-1.024-558.08c0-1.536-3.072-37.376 33.792-37.376h346.624c20.992 0 33.28-9.216 33.28-28.672 0-14.848-11.776-28.16-33.28-28.16H105.472c-67.584 0-88.064 52.224-88.064 94.208V640.512c0 17.92 7.68 35.84 19.968 48.64l110.592 118.784c16.384 17.408 40.96 27.648 67.072 27.648h539.648c26.112 0 50.688-10.24 67.072-27.648l110.592-118.784c12.8-13.312 19.968-30.208 19.968-48.64v-179.2c0-19.968-11.264-31.232-31.744-31.232-20.992 0-31.232 11.776-31.232 31.232 0.512 65.536 0.512 118.272 0.512 146.944z m-27.136 61.952l-88.064 94.208c-11.264 13.312-23.04 9.216-26.624 9.216H208.896c-7.168 0.512-13.312-2.048-17.92-7.68L104.448 670.208h758.272zM441.344 220.16c0 141.824 114.688 257.024 256.512 257.024s257.024-114.688 257.024-256.512c0-52.224-15.872-103.424-46.08-145.92l68.608-68.096c17.408-18.432 16.384-48.128-2.048-65.536-17.408-16.384-45.056-16.384-62.976 0l-68.608 68.096c-116.736-80.384-276.48-51.2-356.864 65.536-30.208 42.496-45.568 93.696-45.568 145.408z m254.464-194.048c101.888 0 183.296 74.752 193.024 182.784 9.216 108.032-90.112 210.944-199.68 205.824s-184.32-84.48-184.32-188.416 89.088-200.192 190.976-200.192z"  horiz-adv-x="1024" />

    
    <glyph glyph-name="fuwushangxinxiku" unicode="&#58946;" d="M897.536 434.176h-134.144V803.328c0 36.864-30.208 67.072-67.072 67.072H92.672C55.808 870.4 25.6 840.192 25.6 803.328v-838.656c0-36.864 30.208-67.072 67.072-67.072h804.864c55.296 0 100.864 45.056 100.864 100.864v335.36c0 55.296-45.056 100.352-100.864 100.352zM696.32-35.328H92.672V803.328H696.32v-838.656z m235.008 33.792c0-18.432-14.848-33.792-33.792-33.792h-134.144v402.432h134.144c18.432 0 33.792-14.848 33.792-33.792v-334.848zM193.536 702.464h369.152v-67.072H193.536V702.464z m0-201.216h268.288v-67.072H193.536V501.248z m0-201.216h402.432v-67.072H193.536v67.072z"  horiz-adv-x="1024" />

    
    <glyph glyph-name="fafang" unicode="&#58947;" d="M63.488-94.208c-20.992 0-37.376 16.896-37.376 37.888V545.28c0 13.312 6.656 24.576 17.408 31.744L494.08 865.28c11.776 8.192 27.648 8.192 40.448 0l447.488-288.256c10.752-7.168 17.408-18.944 17.408-31.744v-211.968c0-20.992-16.896-37.888-37.888-37.888-20.992 0-37.888 16.896-37.888 37.888V524.8l-410.624 264.192-411.648-264.192v-543.744h345.088c20.992 0 37.888-16.896 37.888-37.888s-16.896-37.888-37.888-37.888l-382.976 0.512zM770.56-92.672c-9.728 0-18.944 3.584-26.624 10.752-14.848 14.848-14.848 38.4 0 52.736L906.24 133.12l-161.792 162.816c-14.848 14.848-14.848 38.4 0 52.736 14.848 14.848 38.4 14.848 52.736 0l188.928-188.928c14.848-14.848 14.848-38.4 0-52.736L797.184-81.92c-7.168-6.656-16.896-10.752-26.624-10.752zM940.544 96.256h-440.32c-20.992 0-37.888 16.896-37.888 37.888s16.896 37.888 37.888 37.888h439.808c20.992 0 37.888-16.896 37.888-37.888s-16.896-37.888-37.376-37.888z"  horiz-adv-x="1024" />

    
    <glyph glyph-name="haocaiguanli" unicode="&#58948;" d="M987.648 535.552c-14.336 32.256-40.96 54.784-73.216 63.488l54.784 62.464c30.208 34.304 37.376 81.92 18.432 124.416-18.944 41.984-58.368 67.584-102.912 67.584H273.92l-215.552-245.76C50.176 598.528 44.032 588.8 39.424 578.56c-15.872-35.328-12.288-77.824 9.216-111.104 14.848-22.528 35.84-37.888 59.904-45.568L53.248 353.28c-29.184-34.304-35.84-80.896-16.896-122.368 13.824-30.208 39.424-52.224 69.632-61.44l-52.736-64.512c-29.696-34.304-35.84-81.92-16.896-123.904 18.944-41.472 58.368-67.072 102.4-67.072h614.4l216.064 246.784c30.208 34.304 37.376 81.92 18.432 124.416-14.336 32.256-40.96 54.784-73.216 63.488l54.784 62.464c30.72 34.304 37.888 81.92 18.432 124.416zM101.376 501.248c-7.68 11.776-10.752 26.112-8.192 39.424h385.024V603.648H137.728l164.864 187.904h582.144c19.968 0 37.376-11.264 45.568-30.72 7.168-15.36 8.704-38.4-8.192-57.344l-197.12-225.28H142.848c-23.04 0-35.84 14.336-41.472 23.04z m783.36-211.456c19.968 0 37.376-11.264 45.568-30.72 7.168-15.36 8.704-38.4-8.192-57.344l-197.12-225.28H139.264c-19.968 0-36.864 11.264-45.568 30.208-4.096 8.704-5.632 20.48-3.584 32.256h482.304v62.464h-440.32l51.2 62.464h570.368l109.568 125.44 21.504 0.512z m37.888 162.816l-197.12-225.28H139.264c-19.968 0-37.376 11.264-46.08 29.696-5.12 10.752-5.632 22.016-3.584 32.768h231.424v62.464H133.632L184.32 414.72h569.344l109.568 125.44h21.504c19.968 0 37.376-11.264 45.568-30.72 7.168-14.848 8.704-37.888-7.68-56.832z"  horiz-adv-x="1024" />

    
    <glyph glyph-name="dongyongjilu" unicode="&#58949;" d="M755.2 870.4H160.768c-44.544 0-80.896-36.352-80.896-80.896V87.04c0-44.544 36.352-80.896 80.896-80.896h27.136v-27.136c0-44.544 36.352-80.896 80.896-80.896h594.432c44.544 0 80.896 36.352 80.896 80.896V681.472c0 44.544-36.352 80.896-80.896 80.896h-27.136v27.136c0 44.544-36.352 80.896-80.896 80.896zM160.768 59.904c-14.848 0-27.136 12.288-27.136 27.136V789.504c0 14.848 12.288 27.136 27.136 27.136h594.432c14.848 0 27.136-12.288 27.136-27.136V87.04c0-14.848-12.288-27.136-27.136-27.136H160.768z m108.032-108.032c-14.848 0-27.136 12.288-27.136 27.136v27.136h513.536c44.544 0 80.896 36.352 80.896 80.896V708.096h27.136c14.848 0 27.136-12.288 27.136-27.136v-702.464c0-14.848-12.288-27.136-27.136-27.136H268.8z m378.368 702.464H268.8c-14.848 0-27.136-12.288-27.136-27.136s12.288-27.136 27.136-27.136h378.368c14.848 0 27.136 12.288 27.136 27.136s-12.288 27.136-27.136 27.136z m0-162.304H268.8c-14.848 0-27.136-12.288-27.136-27.136s12.288-27.136 27.136-27.136h378.368c14.848 0 27.136 12.288 27.136 27.136s-12.288 27.136-27.136 27.136z m-162.304-162.304H268.8c-14.848 0-27.136-12.288-27.136-27.136s12.288-27.136 27.136-27.136h216.064c14.848 0 27.136 12.288 27.136 27.136 0 15.36-12.288 27.136-27.136 27.136z"  horiz-adv-x="1024" />

    
    <glyph glyph-name="jichuzidianguanli" unicode="&#58950;" d="M906.752 688.64c16.896 0 30.208 13.824 30.208 30.208v61.44c0 50.176-40.96 91.136-91.136 91.648H177.152c-49.664 0-90.112-39.936-91.136-89.6V51.2c0-83.968 68.096-152.576 152.064-152.576h668.672c16.896 0 30.208 13.824 30.208 30.208s-13.824 30.208-30.208 30.208H238.08c-50.176 0-91.136 40.96-91.136 91.136s40.96 91.648 91.136 91.648h668.672c16.896 0 30.208 13.824 30.208 30.208v552.96c0.512 16.896-12.288 30.72-28.672 31.744-16.896 0.512-30.72-12.288-31.744-28.672v-524.288H238.08c-32.768-0.512-65.024-10.752-91.136-30.208V781.824c0 16.896 13.824 30.208 30.208 30.208h668.672c16.896 0 30.208-13.824 30.208-30.208v-60.928c-1.024-16.896 12.288-31.232 28.672-32.256h2.048zM906.752 81.408H238.08c-16.896 0-30.208-13.824-30.208-30.208 0-16.896 13.824-30.208 30.208-30.208h668.672c16.896 0 30.208 13.824 30.208 30.208s-13.312 30.208-30.208 30.208z"  horiz-adv-x="1024" />

    
    <glyph glyph-name="meirixunjian" unicode="&#58951;" d="M901.12 782.336h-174.08V846.848c0 17.92-14.848 32.256-32.256 32.256-17.92 0-32.256-14.848-32.256-32.256v-64.512H361.472V846.848c0 17.92-14.848 32.256-32.256 32.256S296.96 864.768 296.96 846.848v-64.512H122.88c-53.76 0-97.28-43.52-97.28-97.28v-675.84c0-53.76 43.52-97.28 97.28-97.28h778.24c53.76 0 97.28 43.52 97.28 97.28v675.84c-0.512 53.76-44.032 97.28-97.28 97.28zM122.88 717.824h174.08v-37.376c0-17.92 14.848-32.256 32.256-32.256s32.256 14.848 32.256 32.256v37.376h300.544v-37.376c0-17.92 14.848-32.256 32.256-32.256 17.92 0 32.256 14.848 32.256 32.256v37.376h173.568c17.92 0 32.256-14.848 32.256-32.256v-114.176c-4.608 2.048-9.216 3.584-14.336 3.584H104.448c-5.12 0-9.728-1.536-14.336-3.584V685.056c0.512 17.92 14.848 32.768 32.768 32.768z m778.24-740.864H122.88c-17.92 0-32.256 14.848-32.256 32.256V513.536c4.608-2.048 9.216-3.584 14.336-3.584h815.104c5.12 0 9.728 1.536 14.336 3.584v-504.32c-1.024-17.408-15.36-32.256-33.28-32.256zM365.568 388.096H232.96c-17.92 0-32.256-14.848-32.256-32.256 0-17.92 14.848-32.256 32.256-32.256h132.608c17.92 0 32.256 14.848 32.256 32.256 0 18.432-14.336 32.256-32.256 32.256z m0-190.976H232.96c-17.92 0-32.256-14.848-32.256-32.256s14.848-32.256 32.256-32.256h132.608c17.92 0 32.256 14.848 32.256 32.256s-14.336 32.256-32.256 32.256z m399.872 169.984l-116.224-148.48-78.336 60.928c-14.336 10.752-34.304 8.704-45.056-5.632-11.264-14.336-8.704-34.304 5.632-45.056l103.424-80.896c6.144-4.608 12.8-6.656 19.968-6.656 9.728 0 19.456 4.608 25.6 12.288l136.192 173.568c11.264 14.336 8.704 34.304-5.632 45.056-14.336 11.776-34.816 8.704-45.568-5.12z"  horiz-adv-x="1024" />

    
    <glyph glyph-name="lingyongyuguihuan" unicode="&#58952;" d="M784.896 477.696l-4.096 2.048c-2.048 4.096-6.656 6.656-8.704 6.656L650.24 580.608c-12.8 8.704-32.256 6.656-43.008-6.656-10.752-12.8-6.656-32.256 6.656-43.008l55.296-43.008h-430.08c-14.848 0-29.696-12.8-29.696-29.696s12.8-29.696 29.696-29.696h507.392c6.656-4.096 12.8-6.656 18.944-6.656 10.752-2.048 18.944 4.096 23.552 12.8 10.752 8.704 12.8 23.552 4.096 34.304-1.536 4.608-5.632 6.656-8.192 8.704z m2.56-176.64c0 16.896-12.8 29.696-29.696 29.696H230.912c-2.048 0-2.048 0-6.656-2.048-2.048 0-2.048-2.048-2.048-2.048-4.096-2.048-4.096-4.096-4.096-6.656s-2.048-2.048-2.048-2.048c0-2.048-2.048-2.048-2.048-6.656v-18.944c0-2.048 0-2.048 2.048-6.656l2.048-4.096c0-2.048 2.048-2.048 2.048-6.656l134.144-102.4c6.656-4.096 12.8-6.656 18.944-6.656 10.752-2.048 18.944 4.096 23.552 12.8 10.752 12.8 6.656 32.256-6.656 43.008l-66.048 46.592h430.592c16.896-2.048 32.256 10.752 32.256 27.648v5.12h0.512zM998.4 597.504c0 149.504-121.344 270.848-272.896 272.896H298.496C149.504 870.4 25.6 749.056 25.6 597.504v-424.448C25.6 21.504 146.944-102.4 298.496-102.4h424.448c149.504 0 270.848 121.856 272.896 270.848l2.56 429.056z m-272.896-640H298.496c-117.248 0-213.504 96.256-213.504 213.504V597.504c0 117.248 96.256 213.504 213.504 213.504h424.448c117.248 0 213.504-96.256 213.504-213.504l2.048-426.496c0-117.76-95.744-213.504-212.992-213.504z"  horiz-adv-x="1024" />

    
    <glyph glyph-name="ruku" unicode="&#58953;" d="M962.048-94.208h-382.464c-20.992 0-37.888 16.896-37.888 37.888s16.896 37.888 37.888 37.888h345.088V524.8l-412.16 264.192-410.624-264.192v-191.488c0-20.992-16.896-37.888-37.888-37.888s-37.888 16.896-37.888 37.888V545.28c0 12.8 6.656 24.576 17.408 31.744L491.52 865.28c12.8 8.192 28.16 8.192 40.448 0l450.048-288.256c10.752-7.168 17.408-18.432 17.408-31.744V-56.32c0-20.992-16.384-37.888-37.376-37.888zM337.408-92.672c-9.728 0-18.944 3.584-26.624 10.752-14.848 14.848-14.848 38.4 0 52.736L473.088 133.12l-161.792 162.816c-14.848 14.848-14.848 38.4 0 52.736 14.848 14.848 38.4 14.848 52.736 0l188.928-188.928c14.848-14.848 14.848-38.4 0-52.736L364.032-81.92c-7.168-6.656-16.896-10.752-26.624-10.752zM506.88 96.256H66.56c-20.992 0-37.888 16.896-37.888 37.888s16.896 37.888 37.888 37.888h439.808c20.992 0 37.888-16.896 37.888-37.888s-16.384-37.888-37.376-37.888z"  horiz-adv-x="1024" />

    
    <glyph glyph-name="shebeiyijiao" unicode="&#58954;" d="M937.472 81.92c-8.192 0-16.384 3.584-22.016 10.24L757.76 276.48c-10.24 12.288-8.704 30.72 3.072 40.96 12.288 10.24 30.72 8.704 40.96-3.072l157.184-184.32c10.24-12.288 8.704-30.72-3.072-40.96-5.12-4.608-11.776-7.168-18.432-7.168z m-157.696-184.32c-6.656 0-13.312 2.56-18.944 7.168-12.288 10.24-13.824 28.672-3.072 40.96l157.184 184.32c10.24 12.288 28.672 13.824 40.96 3.072 12.288-10.24 13.824-28.672 3.072-40.96l-157.184-184.32c-5.632-6.656-13.312-10.24-22.016-10.24z m157.696 184.32H464.896c-15.872 0-29.184 13.312-29.184 29.184s13.312 29.184 29.184 29.184h472.576c15.872 0 29.184-13.312 29.184-29.184-0.512-15.872-13.312-29.184-29.184-29.184zM802.304 550.912c0-97.792-44.544-189.44-121.344-250.368l-26.112-17.92-31.744-19.456c-42.496-20.992-89.088-31.744-137.216-31.744-50.688 2.048-99.84 13.824-145.408 35.84-128-54.784-214.528-176.64-223.744-315.904v-11.776c-1.536-16.896-14.848-29.184-31.744-27.648s-29.184 14.848-27.648 31.744v7.68c9.728 148.48 94.72 282.112 224.768 353.792-70.144 59.392-111.616 147.968-112.64 240.128-2.56 177.152 138.752 322.56 316.416 325.12 175.104-1.536 316.928-144.384 316.416-319.488z m-64-0.512V552.96c-1.024 141.824-116.736 254.976-258.56 253.44-141.312-1.536-254.464-117.76-252.928-258.56 1.536-141.312 117.76-254.464 258.56-252.928 140.8 1.024 253.44 115.2 252.928 255.488z"  horiz-adv-x="1024" />

    
    <glyph glyph-name="ruanjianzichandengji" unicode="&#58955;" d="M771.584-102.4H252.416c-90.624 0-162.304 71.168-162.304 162.304V578.56L375.808 870.4h395.776c90.624 0 162.304-71.168 162.304-162.304v-648.704c-0.512-90.624-71.68-161.792-162.304-161.792zM155.136 552.448v-493.056c0-51.712 45.568-97.28 97.28-97.28h518.656c51.712 0 97.28 45.568 97.28 97.28V708.096c0 51.712-45.568 97.28-97.28 97.28H401.92L155.136 552.448zM297.984 546.304H142.336V610.816h155.648c32.256 0 51.712 26.112 51.712 51.712V838.144H414.72v-175.104c0-65.024-51.712-116.736-116.736-116.736z m136.192-363.52c-6.656 0-19.456 0-26.112 6.656l-129.536 142.848c-12.8 12.8-12.8 32.256 0 45.568 12.8 12.8 32.256 12.8 45.568 0l136.192-136.192c12.8-12.8 12.8-32.256 0-45.568-6.656-6.656-13.312-13.312-26.112-13.312zM434.176 182.784c-6.656 0-19.456 0-26.112 6.656-12.8 12.8-12.8 32.256 0 45.568l279.04 279.04c12.8 12.8 32.256 12.8 45.568 0 12.8-12.8 12.8-32.256 0-45.568l-272.384-272.384c-6.656-6.656-13.312-13.312-26.112-13.312z"  horiz-adv-x="1024" />

    
    <glyph glyph-name="gongwuyongche" unicode="&#58956;" d="M988.636637 327.111111c-4.1001 53.301301-38.438438 100.452452-87.63964 122.490491l-44.076076 208.08008C840.520521 733.533534 764.156156 795.547548 686.766767 795.547548H338.258258c-77.901902 0-154.266266-62.014014-170.154154-137.865866L123.003003 449.601602C73.801802 427.563564 39.463463 380.412412 35.363363 327.111111l-10.25025-133.253253c-4.1001-57.401401 28.188188-109.165165 79.43944-130.178178 11.787788-46.126126 53.301301-79.439439 102.502502-79.43944 45.613614 0 84.564565 28.700701 99.427427 69.701702h410.01001c14.862863-41.001001 53.813814-69.701702 99.427428-69.701702 49.201201 0 90.714715 33.825826 102.502502 79.43944 51.251251 21.013013 83.53954 72.776777 79.43944 130.178178l-9.225225 133.253253z m-103.015015-211.667668c-12.812813-3.075075-22.550551-14.35035-23.063063-27.675675-1.025025-24.600601-21.525526-44.076076-46.126127-44.076076-24.088088 0-44.076076 18.45045-46.126126 42.538538-1.537538 15.375375-14.35035 27.163163-29.725725 27.163163H282.906907c-15.375375 0-28.188188-11.787788-29.725726-27.163163-2.05005-24.088088-22.038038-42.538539-46.126126-42.538538-24.600601 0-45.101101 19.475475-46.126126 44.076076-0.512513 13.325325-10.25025 24.600601-23.063063 27.675675-34.338338 7.687688-55.863864 38.438438-53.301301 73.801802l10.25025 133.253253C97.377377 357.349349 123.515516 388.612613 158.366366 398.862863c11.275275 3.587588 19.475475 13.325325 21.013013 25.113113 0 1.537538 0.512513 3.587588 0.512513 5.125125v2.562563L225.505506 645.381381c10.25025 49.201201 62.014014 90.714715 112.24024 90.714715h348.508508c50.226226 0 101.477477-41.513514 112.24024-90.714715l45.101102-213.205205v-2.562562c0-1.537538 0-3.075075 0.512512-5.125126 1.537538-11.787788 9.737738-21.525526 21.013013-25.113113 34.850851-10.25025 60.988989-42.026026 63.551552-76.364364l10.25025-133.253253c3.075075-35.875876-18.962963-66.114114-53.301301-74.314315zM282.906907 421.413413h458.698699c11.275275 0 20.500501 4.1001 26.138138 11.275276 6.15015 7.175175 8.712713 17.425425 7.175175 28.188188 0 0.512513-0.512513 1.537538-0.512513 2.05005l-35.875875 156.316316c-4.612613 24.600601-28.700701 45.101101-54.326327 45.101101H339.795796c-25.113113 0-49.713714-20.500501-54.326327-45.101101l-35.875875-156.316316c0-0.512513-0.512513-1.537538-0.512513-2.05005-1.537538-10.762763 1.025025-21.013013 6.662663-27.675676 6.662663-7.687688 15.887888-11.787788 27.163163-11.787788zM343.383383 604.892893h337.233234l28.7007-124.028028H315.195195L343.383383 604.892893z m-96.352352-285.46947c-36.900901 0-67.139139-30.238238-67.139139-67.139139 0-37.413413 30.238238-67.139139 67.139139-67.139139 36.900901 0 67.139139 30.238238 67.139139 67.139139 0 36.900901-30.238238 67.139139-67.139139 67.139139z m529.937938 0c-36.900901 0-67.139139-30.238238-67.139139-67.139139 0-37.413413 30.238238-67.139139 67.139139-67.139139 37.413413 0 67.139139 30.238238 67.139139 67.139139 0.512513 36.900901-29.725726 67.139139-67.139139 67.139139z"  horiz-adv-x="1025" />

    
    <glyph glyph-name="jiaocaimuluku" unicode="&#58957;" d="M876.544 872.96H147.456C99.84 872.96 61.44 834.048 61.44 786.432v-805.376c0-47.616 38.912-86.528 86.528-86.528h729.088c47.616 0 86.528 38.912 86.528 86.528V786.432c-1.024 47.616-39.424 86.528-87.04 86.528zM588.8 815.616h172.544v-201.728l-86.528 64L588.8 613.376V815.616zM147.456-47.616c-15.872 0-28.672 12.8-28.672 28.672V786.432c0 15.872 12.8 28.672 28.672 28.672H204.8v-862.72H147.456z m757.76 28.672c0-15.872-12.8-28.672-28.672-28.672H262.656V815.616h268.8v-316.416l143.872 107.008L819.2 499.2V815.616h57.344c15.872 0 28.672-12.8 28.672-28.672v-805.888z"  horiz-adv-x="1024" />

    
    <glyph glyph-name="shebeiwaidai" unicode="&#58958;" d="M912.384 669.696h-114.688V783.872c0 47.104-38.912 86.016-86.016 86.016H311.808c-47.104 0-86.016-38.912-86.016-86.016v-114.688H111.616C64.512 669.184 25.6 630.784 25.6 583.68v-600.576c0-47.104 38.912-86.016 86.016-86.016h800.256c47.104 0 86.016 38.912 86.016 86.016V583.68c0 47.616-38.912 86.016-85.504 86.016zM283.648 783.872c0 15.872 12.8 28.672 28.672 28.672h400.384c15.872 0 28.672-12.8 28.672-28.672v-114.688H283.648V783.872z m628.736-828.928H111.616c-15.872 0-28.672 12.8-28.672 28.672v290.816c9.216-3.072 18.432-5.12 28.672-5.12h285.696v-28.672c0-47.104 38.912-86.016 86.016-86.016h56.832c47.104 0 86.016 38.912 86.016 86.016v28.672h285.696c10.24 0 19.968 2.048 28.672 5.12v-290.816c0.512-15.36-12.8-28.672-28.16-28.672z m-457.216 286.208v114.688c0 15.872 12.8 28.672 28.672 28.672h56.832c15.872 0 28.672-12.8 28.672-28.672v-114.688c0-15.872-12.8-28.672-28.672-28.672H483.328c-15.36 0-28.16 12.8-28.16 28.672z m485.888 114.176c0-15.872-12.8-28.672-28.672-28.672h-285.696v28.672c0 47.104-38.912 86.016-86.016 86.016H483.328c-47.104 0-86.016-38.912-86.016-86.016v-28.672H111.616c-15.872 0-28.672 12.8-28.672 28.672V584.192c0 15.872 12.8 28.672 28.672 28.672h800.256c15.872 0 28.672-12.8 28.672-28.672l0.512-228.864z"  horiz-adv-x="1024" />

    
    <glyph glyph-name="jiaoxuerenwu" unicode="&#58959;" d="M859.648 870.4H164.352C88.064 870.4 25.6 807.936 25.6 731.648v-694.784c0-76.8 62.464-138.752 138.752-138.752h694.784c76.8 0 138.752 62.464 138.752 138.752V731.648C998.4 807.936 935.936 870.4 859.648 870.4z m69.12-834.048c0-38.4-31.232-69.632-69.632-69.632H164.352c-18.432 0-36.352 7.168-49.664 19.968-13.312 13.312-20.48 30.72-20.48 49.152V730.624c0.512 38.912 31.744 70.144 70.144 70.144h694.784c38.4 0 69.632-31.232 69.632-69.632v-694.784zM816.128 563.712h-278.016a34.304 34.304 0 0 1 0-68.608h278.016c18.944 0 34.304 15.36 34.304 34.304 0 18.432-15.36 34.304-34.304 34.304z m0-278.016h-278.016a34.304 34.304 0 0 1 0-68.608h278.016c18.944 0 34.304 15.36 34.304 34.304 0 18.432-15.36 34.304-34.304 34.304z m-486.4 86.528c-67.072 0-121.856-54.272-121.856-121.856s54.272-121.856 121.856-121.856 121.856 54.272 121.856 121.856-54.784 121.856-121.856 121.856z m36.864-158.208c-20.48-20.48-53.248-20.48-73.728 0s-20.48 53.248 0 73.728 53.248 20.48 73.728 0c10.24-10.24 14.848-23.04 14.848-36.864 0.512-14.336-5.12-27.648-14.848-36.864z m42.496 408.576L294.4 507.904 249.856 552.96c-13.312 13.312-35.328 13.312-49.152 0s-13.312-35.328 0-49.152l69.632-69.632c13.312-13.312 35.328-13.312 49.152 0L458.24 573.44c13.312 13.824 13.312 35.328-0.512 49.152-12.8 13.312-34.816 13.312-48.64 0z"  horiz-adv-x="1024" />

    
    <glyph glyph-name="shiyanshi" unicode="&#58961;" d="M720.384 799.744H303.616c-19.456 0-34.816 15.36-34.816 34.816s15.36 34.816 34.816 34.816h417.28c19.456 0 34.816-15.36 34.816-34.816s-15.872-34.816-35.328-34.816z m110.08-588.288H193.536c-19.456 0-34.816 15.36-34.816 34.816s15.36 34.816 34.816 34.816h636.416c19.456 0 34.816-15.36 34.816-34.816 0.512-19.456-15.36-34.816-34.304-34.816z m29.184-314.88H164.864c-50.688 0-99.328 28.16-123.392 71.168-21.504 38.912-19.968 83.968 4.096 123.904l292.864 510.464V821.248c0 19.456 15.36 34.816 34.816 34.816s34.816-15.36 34.816-34.816v-228.864c0-6.144-1.536-12.288-4.608-17.408L105.984 56.32l-0.512-1.024c-11.264-18.432-12.288-36.864-3.072-53.76 11.776-20.992 37.376-35.84 62.464-35.84H860.16c25.088 0 50.688 14.848 62.976 35.84 8.704 15.872 8.704 31.232-0.512 46.592l-0.512 0.512-301.056 525.312c-3.072 5.12-4.608 11.264-4.608 17.408V821.248c0 19.456 15.36 34.816 34.816 34.816s34.816-15.36 34.816-34.816v-220.672l295.424-516.608c22.016-36.352 22.528-78.848 1.536-116.224-24.576-43.52-72.704-71.168-123.392-71.168z"  horiz-adv-x="1024" />

    
    <glyph glyph-name="weixiu" unicode="&#58962;" d="M953.273273 164.132132l-218.842843 218.842843c14.35035 39.463463 21.013013 80.464464 21.013013 122.49049 0 201.417417-164.004004 365.421421-365.421421 365.421422-50.226226 0-98.914915-10.25025-145.041041-30.238238l-21.525526-9.225226c-2.05005-1.025025-4.1001-2.05005-5.637637-4.1001-7.175175-7.175175-7.175175-18.962963 0-26.138138l204.492492-204.492492-123.003003-123.003003-200.392392 200.392392c-0.512513 0-0.512513 0-1.025025 0.512513-8.712713 8.712713-22.038038 8.712713-30.750751 0-2.562563-2.562563-4.1001-5.125125-5.125125-7.687688 0-0.512513 0 0-0.512512 0l-6.662663-15.375375c-19.987988-46.126126-30.238238-94.814815-30.238238-145.041042 0-201.417417 164.004004-365.421421 365.421421-365.421421 42.026026 0 83.027027 7.175175 122.490491 21.013013l218.842842-218.842843c29.725726-29.725726 68.676677-45.613614 110.702703-45.613613 42.026026 0 80.976977 16.4004 110.702703 45.613613 61.501502 60.476476 61.501502 159.903904 0.512512 220.892893z m-49.201201-172.204204c-16.4004-16.4004-38.438438-25.625626-61.501501-25.625626s-45.101101 9.225225-61.501502 25.625626l-251.643644 251.643644-21.525525-9.225226c-37.413413-15.887888-76.876877-24.088088-117.365365-24.088088-162.978979 0-295.71972 132.740741-295.71972 295.71972 0 22.550551 2.562563 45.101101 7.687688 66.626627L285.981982 388.612613c7.687688-6.15015 18.45045-6.15015 26.138138-0.512513l193.217217 193.217217c7.687688 7.687688 8.2002 19.987988 1.537538 28.700701L323.395395 794.01001c21.525526 5.125125 44.076076 7.687688 66.626627 7.687688 162.978979 0 295.71972-132.740741 295.71972-295.71972 0-40.488488-8.2002-79.951952-24.088088-117.365365l-9.225226-21.525526 251.643644-251.643644c33.825826-34.338338 33.825826-89.177177 0-123.515515z"  horiz-adv-x="1025" />

    
    <glyph glyph-name="shipinjiankong" unicode="&#58963;" d="M928.768 618.496l-286.72 231.936c-38.4 31.232-94.72 24.576-125.44-13.312l-402.944-497.664c-27.648-33.792-25.6-81.92 1.536-114.176l3.072-3.072c2.56-3.072 5.12-5.12 8.704-8.192l-43.008-48.64c-15.872-18.432-24.064-41.984-22.016-66.048 2.048-24.064 13.824-45.568 32.768-60.928L243.712-81.92c16.896-13.824 36.864-20.48 57.344-20.48 25.088 0 50.176 10.752 68.096 31.232l45.568 52.224c38.4-29.696 93.696-23.552 123.904 14.336l139.776 172.544h194.56v-107.008c0-14.848 12.288-27.648 27.648-27.648 14.848 0 27.648 12.288 27.648 27.648v268.8c0 14.848-12.288 27.648-27.648 27.648s-27.648-12.288-27.648-27.648v-107.008h-149.504L942.08 493.056c30.72 37.888 25.088 94.208-13.312 125.44zM327.68-34.816c-12.8-14.336-33.792-15.872-49.152-4.096l-148.48 120.832c-7.168 5.632-11.776 14.336-12.288 23.04-1.024 9.216 2.048 17.92 8.192 24.576l44.032 50.688 201.728-164.352-44.032-50.688zM899.072 527.872l-402.944-497.664c-11.776-14.336-33.792-16.896-48.128-4.608l-18.944 15.36c-0.512 0-0.512 0.512-1.024 0.512l-271.36 220.672c-9.728 12.288-10.24 30.72 0 43.52l402.944 497.664c6.656 8.192 16.384 12.8 26.624 12.8 7.68 0 14.848-2.56 21.504-7.68l203.776-164.864-0.512-0.512-177.664-220.16c-8.192-10.24-6.656-25.088 3.584-33.792 10.24-8.192 25.088-6.656 33.792 3.584l177.664 220.16s0 0.512 0.512 0.512l45.568-36.864c14.336-12.288 16.896-34.304 4.608-48.64z"  horiz-adv-x="1024" />

    
    <glyph glyph-name="shenqing" unicode="&#58964;" d="M848.896 266.752c-7.68 0.512-15.36-2.048-20.48-7.168-5.632-5.12-8.704-12.288-8.704-19.968v-230.4c0-17.408-21.504-40.448-38.912-40.448H141.312c-16.896 0-40.448 22.528-40.448 40.448V763.904c0 17.408 22.016 40.448 40.448 40.448h640.512c15.872 0 41.984-27.136 41.984-44.544v-81.408c0-15.872 13.824-29.696 29.696-29.696s29.696 13.824 29.696 29.696V781.824c0 45.568-37.888 83.456-82.432 83.456H121.856c-45.056 0-81.92-37.888-81.92-83.456v-788.992c0-49.152 35.84-85.504 82.432-85.504H793.6c46.08 0 82.432 35.328 82.432 79.872v252.928c-0.512 14.848-11.776 26.624-27.136 26.624zM652.288 640c0 15.872-13.824 29.696-29.696 29.696H206.336c-15.872 0-29.696-13.824-29.696-29.696s13.824-29.696 29.696-29.696h415.744c16.384 0 30.208 13.312 30.208 29.696zM202.752 515.584c-15.872 0-29.696-13.312-29.696-29.696 0-15.872 13.824-29.696 29.696-29.696h261.12c15.872 0 29.696 13.824 29.696 29.696 0 15.872-13.824 29.696-29.696 29.696h-261.12zM993.28 564.736l-1.024-1.024 1.024 1.024c-1.024 1.024-2.048 2.048-2.56 3.072l-49.152 49.152c-20.992 20.992-57.856 33.792-91.648 0l-404.48-413.184-0.512-0.512-11.264-147.968 151.04 7.168 405.504 411.136c15.36 8.192 22.528 23.04 22.528 46.592 0.512 19.456-12.288 35.328-19.456 44.544z m-431.616-442.368s-4.096-3.584-11.776 0.512l-47.104 47.104c-2.048 8.192-0.512 12.8 0 14.336l331.264 336.896 59.904-61.44-332.288-337.408zM952.32 513.536l-15.36-10.752-59.904 61.952 15.872 16.384c1.536 1.536 2.56 1.536 7.68 0 1.536-0.512 3.072-1.024 5.12-1.536l45.056-45.056c0-3.072 1.024-5.632 1.536-8.704 1.024-6.656 2.048-10.752 0-12.288z"  horiz-adv-x="1024" />

    
    <glyph glyph-name="zichanchuzhi" unicode="&#58965;" d="M883.712-62.976H141.824c-40.96 0-74.752 33.792-74.752 74.752v742.4c0 40.96 33.792 74.752 74.752 74.752h741.888c40.96 0 74.752-33.792 74.752-74.752v-741.888c0.512-41.472-33.28-75.264-74.752-75.264zM141.824 774.656c-11.264 0-20.48-9.216-20.48-20.48v-741.888c0-11.264 9.216-20.48 20.48-20.48h741.888c11.264 0 20.48 9.216 20.48 20.48V754.176c0 11.264-9.216 20.48-20.48 20.48H141.824zM758.784 615.424H321.536c-15.36 0-27.648 12.288-27.648 27.648 0 15.36 12.288 27.648 27.648 27.648h437.248c15.36 0 27.648-12.288 27.648-27.648-0.512-15.36-12.288-27.648-27.648-27.648zM711.68 96.256H274.432c-15.36 0-27.648 12.288-27.648 27.648s12.288 27.648 27.648 27.648H711.68c15.36 0 27.648-12.288 27.648-27.648-0.512-15.36-12.288-27.648-27.648-27.648z m-437.76 171.008c-7.168 0-13.824 2.56-18.944 7.68-10.752 10.24-10.752 28.16-0.512 38.4l186.88 190.464c10.24 10.752 28.16 10.752 38.4 0.512 10.752-10.24 10.752-28.16 0.512-38.4l-186.368-190.464c-5.632-6.144-12.8-8.192-19.968-8.192zM562.688 267.264c-9.728 0-18.944 5.12-24.064 14.336L437.248 472.064c-7.168 13.312-2.048 29.696 11.264 36.864 13.312 7.168 29.696 2.048 36.864-11.264l101.888-190.464c7.168-13.312 2.048-29.696-11.264-36.864-4.608-2.048-8.704-3.072-13.312-3.072zM562.688 267.264c-5.12 0-10.24 1.536-15.36 4.608-12.288 8.704-15.872 25.6-7.168 37.888l168.96 248.832c8.704 12.288 25.6 15.872 37.888 7.168 12.288-8.704 15.872-25.6 7.168-37.888l-168.96-248.832c-5.12-8.192-13.824-11.776-22.528-11.776z"  horiz-adv-x="1024" />

    
    <glyph glyph-name="shengjiweihu" unicode="&#58966;" d="M189.952 870.4c18.944 0 34.816-15.36 34.816-34.816v-531.968c0-18.944-15.36-34.816-34.816-34.816-18.944 0-34.816 15.36-34.816 34.816V835.584c0 18.944 15.36 34.816 34.816 34.816z m0-737.28c18.944 0 34.816-15.36 34.816-34.816v-165.888c0-18.944-15.36-34.816-34.816-34.816-18.944 0-34.816 15.36-34.816 34.816v165.888c0 19.456 15.36 34.816 34.816 34.816zM834.048 870.4c18.944 0 34.816-15.36 34.816-34.816v-527.872c0-18.944-15.36-34.816-34.816-34.816-18.944 0-34.816 15.36-34.816 34.816V835.584c0 18.944 15.872 34.816 34.816 34.816z m0-739.84c18.944 0 34.816-15.36 34.816-34.816v-162.816c0-18.944-15.36-34.816-34.816-34.816-18.944 0-34.816 15.36-34.816 34.816v162.816c0 18.944 15.872 34.816 34.816 34.816z m-322.048 368.64c18.944 0 34.816-15.36 34.816-34.816v-531.968c0-18.944-15.36-34.816-34.816-34.816-18.944 0-34.816 15.36-34.816 34.816V464.384c0 19.456 15.872 34.816 34.816 34.816zM189.952 244.736h3.072c28.672-1.024 51.2-25.088 50.688-53.248-0.512-28.672-25.088-51.2-53.248-50.688h-2.56c-28.672 0.512-51.2 25.088-50.688 53.248-0.512 29.184 24.064 51.712 52.736 50.688m0 69.632c-67.072 1.536-122.88-51.2-124.416-118.272s51.2-122.88 118.272-124.416h6.144c67.072-1.536 122.88 51.2 124.416 118.272 1.536 67.072-51.2 122.88-118.272 124.416h-6.144zM512 631.296h3.072c28.672-0.512 51.2-24.576 50.688-53.248-0.512-28.672-24.576-51.2-53.248-50.688h-3.072c-28.672 0.512-51.2 24.576-50.688 53.248 0.512 28.672 24.576 51.2 53.248 50.688m0 69.632c-67.072 1.536-122.88-51.2-124.416-118.272-1.536-67.072 51.2-122.88 118.272-124.416h6.144c67.072-1.536 122.88 51.2 124.416 118.272 1.536 67.072-51.2 122.88-118.272 124.416H512z m322.048-456.192h3.072c28.672-1.024 51.2-25.088 50.688-53.248-1.024-28.672-25.088-51.2-53.248-50.688h-3.072c-28.672 1.024-51.2 25.088-50.688 53.248 0.512 29.184 25.088 51.712 53.248 50.688m0 69.632c-67.072 1.536-122.88-51.2-124.416-118.272s51.2-122.88 118.272-124.416h6.144c67.072-1.536 122.88 51.2 124.416 118.272 1.536 67.072-51.2 122.88-118.272 124.416h-6.144zM512 870.4c18.944 0 34.816-15.36 34.816-34.816V691.2c0-18.944-15.36-34.816-34.816-34.816-18.944 0-34.816 15.36-34.816 34.816V835.584c0 18.944 15.872 34.816 34.816 34.816z"  horiz-adv-x="1024" />

    
    <glyph glyph-name="xuqiujihua" unicode="&#58967;" d="M821.772864 230.142714H408.570854c-14.922613-0.514573-25.728643-11.320603-26.243216-26.243217 0-14.40804 11.835176-26.243216 26.243216-26.243216h413.20201c14.922613 0.514573 25.728643 11.320603 26.243216 26.243216-0.514573 13.893467-12.349749 25.728643-26.243216 26.243217z m-588.671356 13.893467c-22.641206 0-40.136683-18.01005-40.651257-40.651256 0-22.641206 18.524623-40.651256 40.651257-40.651257s40.651256 18.524623 40.651256 40.651257c0 22.641206-18.01005 40.651256-40.651256 40.651256z m0 221.780904c-22.126633 0-40.136683-18.524623-40.651257-40.651256 0-22.641206 18.524623-40.651256 40.651257-40.651256s40.651256 18.524623 40.651256 40.651256c-0.514573 22.126633-18.01005 40.651256-40.651256 40.651256zM823.316583 447.807035H408.570854c-14.922613-0.514573-25.728643-11.320603-26.243216-26.243216 0-14.40804 11.835176-26.243216 26.243216-26.243216h413.20201c14.922613 0.514573 25.728643 11.320603 26.243216 26.243216 0.514573 13.893467-10.291457 25.728643-24.699497 26.243216zM940.124623 685.539698h-285.073367l-4.631155 12.864322c-16.980905 47.340704-59.690452 126.584925-161.57588 130.186935H90.564824C55.573869 829.105528 27.272362 801.318593 26.757789 766.327638v-774.946733c0-34.476382 28.81608-61.748744 63.807035-61.748744h850.588945c34.476382 0 62.263317 27.786935 62.777889 61.748744V623.790955c0 34.476382-28.81608 62.263317-63.807035 61.748743z m-57.632161-696.731658H171.867337c-69.467337 0-78.729648 4.116583-78.729649 78.729648V624.820101h784.209046c28.81608 0 46.826131-4.116583 55.059296-12.864322 9.776884-10.291457 9.776884-27.272362 9.262312-50.428141v-504.79598c-0.514573-67.923618-3.60201-67.923618-59.17588-67.923618zM151.284422 775.58995h270.150754c108.060302 0 131.730653-25.728643 149.226131-56.088442l12.864321-32.418091H93.137688V739.055276c0 16.980905 2.058291 25.728643 7.204021 30.874372 7.20402 6.689447 23.155779 6.174874 50.942713 5.660302z"  horiz-adv-x="1029" />

    
    <glyph glyph-name="zichanyijiao" unicode="&#58968;" d="M984.970913 545.251755s0 0.513541 0 0l-241.364093 275.771314c-11.297894 13.352056-27.731194 22.082247-45.705115 22.082247h-0.513541c-17.973922 0-34.920762-8.21665-45.705115-22.082247-10.784353-12.838516-16.4333-29.271815-16.4333-45.705115v-116.060181h-118.627883c-17.460381 0-30.812437-13.352056-30.812438-30.812437s13.352056-30.812437 30.812438-30.812437h149.440321c8.21665 0 15.919759 3.081244 21.568706 8.73019 6.162487 6.162487 8.730191 13.352056 8.73019 21.568706V776.345035c0 2.054162 0.513541 3.594784 1.027081 4.108325L938.238716 505.709127c2.567703-2.567703 2.567703-9.243731 0-12.324975L697.388164 218.126379c-1.027081 1.540622-1.027081 2.567703-1.027081 4.621866V383.486459c0 8.21665-2.567703 15.919759-8.73019 21.568706-6.162487 6.162487-13.352056 8.730191-21.568706 8.730191H390.290873V542.684052c0 36.974925-27.731194 67.787362-62.138416 67.787362-17.973922 0-34.407222-8.21665-46.218656-21.568706L42.110331 312.617854l-0.513541-0.513541c-22.082247-26.704112-21.568706-65.7332 0.513541-91.923771L282.447342-51.482447c11.297894-13.352056 27.731194-22.082247 45.705115-22.082247h0.513541c17.460381 0 33.893681 8.21665 46.218656 22.082247 10.784353 12.324975 15.919759 28.758275 15.919759 45.705115v115.033099h121.195587c17.460381 0 30.812437 13.352056 30.812437 30.812438s-13.352056 30.812437-30.812437 30.812437H359.478435c-17.460381 0-30.812437-13.352056-30.812437-30.812437v-145.845537c0-1.540622-0.513541-2.567703-1.027081-4.108325l-239.823471 271.149448c-2.567703 2.567703-2.567703 9.243731 0 12.324975l239.30993 275.257774c0.513541-1.540622 1.027081-3.081244 1.027081-4.621866v-159.711133c0-17.460381 13.352056-30.812437 30.812438-30.812438h276.284854v-128.385155c0-36.974925 27.731194-67.787362 62.138415-67.787362 17.973922 0 34.407222 8.21665 45.705116 21.568706L983.943831 454.355065l0.513541 0.513541c21.568706 25.16349 21.568706 64.192578 0.513541 90.383149z"  horiz-adv-x="1027" />

    
    <glyph glyph-name="taizhangguanli" unicode="&#58969;" d="M999.424 385.024c-12.288 71.68-111.616 123.392-240.128 123.392-20.992 0-40.448-1.536-59.392-3.584V697.344c0 58.368-47.616 105.984-105.984 105.984H134.144c-58.368 0-105.984-47.616-105.984-105.984v-608.768c0-58.368 47.616-105.984 105.984-105.984h317.952c15.36 0 28.16 13.312 28.16 28.16 0 15.36-13.312 28.16-28.16 28.16H134.144c-26.624 0-49.152 22.016-49.152 49.152v609.28c0 26.624 22.016 49.152 49.152 49.152h459.264c26.624 0 49.152-22.016 49.152-49.152v-204.288c-73.216-20.992-120.832-61.44-129.024-108.032h-1.536v-295.424c0-77.312 108.032-137.728 246.784-137.728 135.168 0 237.056 56.832 241.664 132.608h0.512V385.024h-1.536z m-430.592-295.424v60.416c46.592-31.232 115.2-49.152 189.952-49.152 73.216 0 138.752 17.408 184.832 49.152v-60.416c0-10.24-5.12-20.992-15.36-30.72-23.552-24.064-80.896-50.176-169.472-50.176-52.736 0-101.888 9.728-138.24 27.136-32.768 15.36-51.712 35.328-51.712 53.76z m189.44 200.704c-109.056 0-187.904 41.472-189.952 78.848v3.072c2.56 37.376 80.896 79.36 189.952 79.36s183.296-40.96 184.832-79.36v-2.56c-1.536-38.4-75.776-79.36-184.832-79.36z m0.512-133.632c-109.056 0-187.904 41.984-189.952 79.36v46.08c46.592-31.232 115.2-49.152 189.952-49.152 73.216 0 138.752 17.408 184.832 49.152v-45.568c-1.536-38.912-75.776-79.872-184.832-79.872zM174.592 576h390.656c15.36 0 28.16 13.312 28.16 28.16s-13.312 28.16-28.16 28.16H174.592c-15.36 0-28.16-13.312-28.16-28.16s12.8-28.16 28.16-28.16z m277.504-138.24H174.592c-15.36 0-28.16-13.312-28.16-28.16s13.312-28.16 28.16-28.16h277.504c15.36 0 28.16 13.312 28.16 28.16 0.512 14.848-12.8 28.16-28.16 28.16z m-277.504-206.848c-15.36 0-28.16-13.312-28.16-28.16 0-15.36 13.312-28.16 28.16-28.16h277.504c15.36 0 28.16 13.312 28.16 28.16 0 15.872-12.8 28.16-28.16 28.16H174.592z"  horiz-adv-x="1024" />

    
    <glyph glyph-name="zichanqingcha" unicode="&#58970;" d="M381.44 434.688H158.208c-44.032 0-79.872 35.84-79.872 79.872V737.792c0 44.032 35.84 79.872 79.872 79.872h223.232c44.032 0 79.872-35.84 79.872-79.872v-223.232c0-43.52-36.352-79.872-79.872-79.872zM158.208 750.592c-6.656 0-12.288-5.632-12.288-12.288v-223.232c0-6.656 5.632-12.288 12.288-12.288h223.232c6.656 0 12.288 5.632 12.288 12.288V737.792c0 6.656-5.632 12.288-12.288 12.288H158.208zM389.12-46.592H165.888c-44.032 0-79.872 35.84-79.872 79.872v223.232c0 44.032 35.84 79.872 79.872 79.872H389.12c44.032 0 79.872-35.84 79.872-79.872v-223.232c0-44.032-35.84-79.872-79.872-79.872z m-223.232 315.392c-6.656 0-12.288-5.632-12.288-12.288v-223.232c0-6.656 5.632-12.288 12.288-12.288H389.12c6.656 0 12.288 5.632 12.288 12.288v223.232c0 6.656-5.632 12.288-12.288 12.288H165.888zM912.896 701.44h-321.024c-18.432 0-33.792 15.36-33.792 33.792s15.36 33.792 33.792 33.792h321.024c18.432 0 33.792-15.36 33.792-33.792s-15.36-33.792-33.792-33.792z m0-217.6h-321.024c-18.432 0-33.792 15.36-33.792 33.792s15.36 33.792 33.792 33.792h321.024c18.432 0 33.792-15.36 33.792-33.792s-15.36-33.792-33.792-33.792z m0-266.752h-321.024c-18.432 0-33.792 15.36-33.792 33.792 0 18.432 15.36 33.792 33.792 33.792h321.024c18.432 0 33.792-15.36 33.792-33.792 0-18.432-15.36-33.792-33.792-33.792z m0-218.112h-321.024c-18.432 0-33.792 15.36-33.792 33.792s15.36 33.792 33.792 33.792h321.024c18.432 0 33.792-15.36 33.792-33.792s-15.36-33.792-33.792-33.792z"  horiz-adv-x="1024" />

    
    <glyph glyph-name="zichanlingyong" unicode="&#58972;" d="M795.648 307.712l21.504-72.192c5.632-16.896 22.528-26.112 39.424-20.992 16.896 5.632 26.112 22.528 20.992 39.424l-21.504 72.192c-20.48 67.584-81.92 113.152-152.576 113.152h-162.816V540.672c77.312 15.36 135.68 83.456 135.68 164.352 0 92.672-75.264 167.936-167.936 167.936S340.992 797.696 340.992 705.024c0-81.92 58.368-150.016 135.68-164.352v-101.888H313.856c-69.632 0-132.608-46.592-152.576-113.152l-21.504-72.192c-2.56-8.192-1.536-16.384 2.048-24.064s10.752-13.312 19.456-15.872c3.072-1.024 6.656-1.536 9.728-1.536 5.12 0 10.24 1.024 14.848 3.584 7.68 3.584 12.8 10.752 15.36 18.944l21.504 72.192c11.776 40.448 48.64 67.584 91.648 67.584h163.328V240.64c0-17.92 13.824-31.744 31.744-31.744s31.744 13.824 31.744 31.744v133.632h162.816c43.008 1.024 79.872-26.112 91.648-66.56z m-286.208 501.76c57.344 0 104.448-47.104 104.448-104.448s-47.104-104.448-104.448-104.448-104.448 47.104-104.448 104.448 47.104 104.448 104.448 104.448z m-342.016-609.28c-79.36 0-144.384-65.024-144.384-144.384s65.024-144.384 144.384-144.384 144.384 65.024 144.384 144.384-65.024 144.384-144.384 144.384z m80.896-144.896c0-45.056-36.352-81.408-81.408-81.408s-81.408 36.352-81.408 81.408 36.352 81.408 81.408 81.408 81.408-36.352 81.408-81.408z m602.624 144.896c-79.36 0-144.384-65.024-144.384-144.384s65.024-144.384 144.384-144.384 144.384 65.024 144.384 144.384-64.512 144.384-144.384 144.384z m81.408-144.896c0-45.056-36.352-81.408-81.408-81.408s-81.408 36.352-81.408 81.408 36.352 81.408 81.408 81.408 81.408-36.352 81.408-81.408z m-422.912 144.896c-79.36 0-144.384-65.024-144.384-144.384 0-38.4 14.848-74.24 41.472-101.888 27.648-27.648 64-43.008 102.912-43.008 79.36 0 144.384 65.024 144.384 144.384s-65.024 144.896-144.384 144.896z m0-225.792c-45.056 0-81.408 36.352-81.408 81.408s36.352 81.408 81.408 81.408 81.408-36.352 81.408-81.408-36.352-81.408-81.408-81.408z"  horiz-adv-x="1024" />

    
    <glyph glyph-name="shiyanshixinxi" unicode="&#58973;" d="M981.504 561.152l-451.584 271.36c-10.752 6.656-25.088 6.656-35.328 0l-451.584-271.36C25.6 550.4 22.016 529.408 32.256 512s31.744-20.992 49.152-10.752l38.912 25.088v-561.152c0-20.992 14.336-35.328 35.328-35.328s35.328 14.336 35.328 35.328V567.808L512 761.856l321.536-194.048v-602.624c0-20.992 14.336-35.328 35.328-35.328s35.328 14.336 35.328 35.328V525.824l42.496-25.088c6.656-3.584 10.752-3.584 17.408-3.584 10.752 0 25.088 6.656 31.744 17.408 6.656 14.848 3.584 38.912-14.336 46.592z m-292.864-497.152h-353.28c-20.992 0-35.328-14.336-35.328-35.328 0-20.992 14.336-35.328 35.328-35.328h353.28c20.992 0 35.328 14.336 35.328 35.328 0 20.992-17.92 35.328-35.328 35.328z m0 175.616h-353.28c-20.992 0-35.328-14.336-35.328-35.328s14.336-35.328 35.328-35.328h353.28c20.992 0 35.328 14.336 35.328 35.328 0 21.504-17.92 35.328-35.328 35.328z"  horiz-adv-x="1024" />

    
    <glyph glyph-name="zichantiaobo" unicode="&#58974;" d="M940.032 384c-16.896 0-30.208 13.824-30.208 30.208V727.552c0 45.056-36.864 81.92-82.432 81.92h-640c-45.056 0-82.432-36.864-82.432-81.92v-687.616c0-45.056 36.864-81.92 82.432-81.92h289.28c16.896 0 30.208-13.824 30.208-30.208s-13.824-30.208-30.208-30.208H187.392c-78.848 0-143.36 64-143.872 142.848V727.552c0 78.848 64.512 143.36 143.872 142.848h640.512c78.848 0 143.36-64 143.36-142.848v-313.344c0-16.384-13.824-30.208-31.232-30.208z m-371.2 19.968H351.744c-16.896 0-30.208 13.824-30.208 30.208 0 4.096 1.024 8.192 2.56 11.776 4.608 11.776 15.872 18.944 28.672 19.456h221.184l-48.64 48.128c-5.632 5.632-9.216 13.312-9.216 21.504 0 16.896 13.824 30.208 30.208 30.208 8.192 0 15.872-3.072 22.016-9.216l92.16-91.648 6.656-6.656c5.632-5.632 8.704-13.312 8.704-20.992v-1.536c0-1.536-0.512-3.072-1.024-5.12v-0.512c0-0.512-0.512-1.536-0.512-2.048 0-0.512-0.512-1.536-1.024-2.048 0-0.512-0.512-1.024-1.024-1.536-1.536-3.072-3.072-5.632-5.632-7.68l-6.656-6.656-3.072-3.072-88.576-91.136c-12.288-11.776-31.232-11.776-43.52 0-11.776 11.776-11.776 30.72 0 43.008l0.512 0.512 43.52 45.056z m45.056-339.968c0 7.68 3.072 15.36 9.216 20.992l6.656 6.656 92.16 91.648c8.704 8.704 22.016 11.264 33.792 6.656 11.264-4.608 18.944-15.872 18.944-28.16 0-8.192-3.072-15.872-9.216-22.016l-48.64-48.128h221.696c12.288 0 23.552-7.68 28.672-18.944 4.608-11.264 2.048-24.064-6.656-33.28-5.632-5.632-13.824-9.216-22.016-9.216H721.92l43.52-43.52c11.776-11.776 12.288-30.72 0-43.008-12.288-11.776-31.232-11.776-43.52 0l-89.6 89.088-3.072 3.072-6.656 6.656c-2.56 2.56-4.608 5.632-6.144 9.216-0.512 0.512-0.512 1.024-1.024 2.048s-0.512 2.048-1.024 3.072c-0.512 1.536-0.512 3.072-1.024 5.12l0.512 2.048c0-0.512 0 0 0 0z"  horiz-adv-x="1024" />

    
    <glyph glyph-name="yanshouruzhang" unicode="&#58975;" d="M512 342.016c264.192 0 471.552 116.736 471.552 265.728s-207.36 266.24-471.552 266.24S40.448 756.736 40.448 607.232c0-148.992 207.36-265.216 471.552-265.216zM114.176 607.232c0 110.592 182.272 203.776 397.824 203.776s397.824-93.184 397.824-203.776-182.272-203.776-397.824-203.776-397.824 93.696-397.824 203.776zM955.392 443.904c-13.312 3.584-27.136 0.512-36.864-9.216-8.704-8.704-12.288-21.504-10.24-33.28 1.024-6.144 1.536-12.288 1.536-18.432 0-110.592-182.272-203.776-397.824-203.776s-397.824 93.184-397.824 203.776c0 6.656 0.512 12.8 1.536 18.944 2.56 11.776-1.024 24.576-10.24 33.28-9.728 9.728-23.04 12.8-36.352 9.216-13.312-3.584-23.04-13.824-25.6-27.136-2.048-11.264-3.072-22.016-3.072-33.28 0-148.992 207.36-265.728 471.552-265.728s471.552 116.736 471.552 265.728c0 11.264-1.024 22.016-3.072 32.768-2.56 13.312-12.288 23.552-25.088 27.136zM954.368 227.328c-12.8 3.584-26.624 0.512-36.352-9.216-8.704-8.704-12.288-21.504-10.24-33.28 1.024-6.144 1.536-12.288 1.536-18.432 0-110.592-182.272-203.776-397.824-203.776S113.664 56.32 113.664 166.912c0 6.656 0.512 12.8 1.536 18.944 2.56 11.776-1.024 24.576-10.24 33.28-9.728 9.728-23.04 12.8-36.352 9.216-13.312-3.584-23.04-14.336-25.6-27.648-2.048-11.264-3.072-22.016-3.072-33.28 0-148.992 207.36-265.728 471.552-265.728s471.552 116.736 471.552 265.728c0 11.264-1.024 22.016-3.072 32.768-2.56 13.312-12.288 23.552-25.6 27.136z"  horiz-adv-x="1024" />

    
    <glyph glyph-name="caigoujihua" unicode="&#58976;" d="M965.12 639.488l-82.944 160.256c-20.48 39.424-70.144 70.656-116.224 70.656H256.512c-43.52 0-94.208-31.232-115.2-70.656L58.88 644.096c-18.432-33.28-30.72-89.088-30.72-128.512V-10.24c0-49.664 41.472-91.136 91.136-91.136h790.016c49.664 0 91.136 41.472 91.136 91.136V510.976c-2.048 39.424-16.384 95.744-35.328 128.512zM112.64 614.4l82.944 156.16c10.24 18.432 39.424 37.376 62.464 37.376h511.488c23.04 0 51.712-18.944 62.464-37.376l82.944-159.744c3.584-8.704 8.704-16.896 10.24-27.136H99.84c2.048 12.8 6.144 23.04 12.8 30.72z m823.808-625.664c0-16.896-14.336-30.72-30.72-30.72h-788.48c-16.896 0-30.72 14.336-30.72 30.72V523.264h848.384v-12.288l1.536-522.24zM767.488 356.864l-154.112-164.352-62.464 62.464c-12.288 12.288-30.72 12.288-43.52 0-12.288-12.288-12.288-30.72 0-43.008l82.944-82.944c6.656-6.144 14.336-8.704 20.992-8.704 3.584 0 8.704 2.048 12.288 2.048 3.584 2.048 8.704 3.584 12.288 8.704l173.056 185.344c12.288 12.288 10.24 30.72-2.048 43.52-8.192 9.216-28.672 7.168-39.424-3.072z m-347.136-1.024H237.568c-16.896 0-30.72-14.336-30.72-30.72 0-16.896 14.336-30.72 30.72-30.72h183.296c16.896 0 30.72 14.336 30.72 30.72 0 18.432-12.8 30.72-31.232 30.72z m-91.648-173.568H237.568c-16.896 0-30.72-14.336-30.72-30.72s14.336-30.72 30.72-30.72h91.136c16.896 0 30.72 14.336 30.72 30.72s-13.824 30.72-30.72 30.72z"  horiz-adv-x="1024" />

    
    <glyph glyph-name="caigouhetong" unicode="&#58977;" d="M865.28-40.96H143.36c-8.192 0-14.336 6.656-14.336 14.336V795.648c0 8.192 6.656 14.336 14.336 14.336h563.2v-174.592c0-16.896 13.824-30.72 30.72-30.72h143.872V-25.6c0-8.704-6.656-15.36-15.872-15.36zM768 759.808L847.36 665.6H768V759.808z m166.4-102.4L762.368 860.16c-5.632 6.656-13.824 10.752-23.552 10.752H143.36c-41.984 0-76.288-34.304-76.288-76.288V-25.6c0-41.984 34.304-76.288 76.288-76.288h722.944c41.984 0 76.288 34.304 76.288 76.288V637.952c-1.024 7.168-4.096 13.824-8.192 19.456zM591.36 536.064H290.816c-16.896 0-30.72 13.824-30.72 30.72s13.824 30.72 30.72 30.72h300.544c16.896 0 30.72-13.824 30.72-30.72s-13.824-30.72-30.72-30.72z m-14.848-185.856H291.328c-16.896 0-30.72 13.824-30.72 30.72s13.824 30.72 30.72 30.72h285.184c16.896 0 30.72-13.824 30.72-30.72-0.512-16.896-13.824-30.72-30.72-30.72z m-143.36-193.024H290.816c-16.896 0-30.72 13.824-30.72 30.72s13.824 30.72 30.72 30.72h142.336c16.896 0 30.72-13.824 30.72-30.72s-13.824-30.72-30.72-30.72z"  horiz-adv-x="1024" />

    
    <glyph glyph-name="xunlianchangdi" unicode="&#58978;" d="M967.68-19.456h-30.72V322.56c0 17.92-9.216 43.008-30.72 51.712l-273.92 179.2V796.16l-3.072 5.632c-12.288 30.72-39.424 45.568-72.704 39.424l-428.032-128c-24.576-9.216-43.008-33.792-43.008-60.928v-672.256h-30.72c-17.92 0-30.72-14.848-30.72-30.72 0-17.92 12.288-30.72 30.72-30.72H967.68c17.92 0 30.72 12.288 30.72 30.72 0 19.456-12.288 31.232-30.72 31.232z m-91.136 345.088v-340.48h-243.2V483.84l243.2-158.208zM147.456 652.8l425.472 128v-795.136H147.456V652.8zM451.072 542.72H268.8c-17.92 0-30.72-15.36-30.72-30.72 0-17.92 12.288-30.72 30.72-30.72h182.272c17.92 0 30.72 12.288 30.72 30.72-0.512 18.944-12.8 30.72-30.72 30.72z m0-182.272H268.8c-17.92 0-30.72-12.288-30.72-30.72s12.288-30.72 30.72-30.72h182.272c17.92 0 30.72 12.288 30.72 30.72s-12.8 30.72-30.72 30.72z m0-182.272H268.8c-17.92 0-30.72-12.288-30.72-30.72s12.288-30.72 30.72-30.72h182.272c17.92 0 30.72 12.288 30.72 30.72-0.512 18.944-12.8 30.72-30.72 30.72z m273.408-60.928h60.928c17.92 0 30.72 12.288 30.72 30.72s-12.288 30.72-30.72 30.72h-60.928c-17.92 0-30.72-14.848-30.72-30.72 0.512-18.432 12.8-30.72 30.72-30.72z"  horiz-adv-x="1024" />

    
    <glyph glyph-name="zichanzhejiu" unicode="&#58979;" d="M512.512 356.864c-4.608 0-9.216 1.024-13.824 3.072L65.536 578.56c-15.36 7.168-22.016 25.088-14.848 40.448 3.072 6.656 8.192 11.776 14.848 14.848L499.2 852.48c8.704 4.096 18.432 4.096 27.136 0l433.664-218.624c10.24-5.12 16.896-14.848 17.408-26.112 0-11.776-6.656-22.528-16.896-27.648l-433.664-220.16c-4.608-1.536-9.216-2.56-14.336-3.072z m-364.544 250.88l346.112-176.128c11.776-6.144 25.6-6.144 37.376 0l346.112 176.128-347.136 176.64c-11.264 5.632-24.576 5.632-35.84 0L147.968 607.744zM512.512 142.336c-4.608-1.024-9.216-1.024-13.824 0l-433.664 218.112c-15.36 7.68-22.016 26.112-14.336 41.472s26.112 22.016 41.472 14.336l401.408-199.68c11.776-5.632 25.088-5.632 36.864 0L931.84 419.328c15.36 7.68 33.792 1.024 41.472-14.336s1.024-33.792-14.336-41.472l-433.664-218.112c-3.072-2.56-7.68-3.584-12.8-3.072zM512.512-76.8c-4.608 0-9.216 1.024-13.824 3.072l-433.664 218.624c-17.92 7.68-25.088 29.696-13.312 46.592 3.584 5.12 9.216 9.216 14.848 11.264 9.216 3.072 18.432 2.048 26.112-2.56L491.52-1.024c13.312-6.656 28.672-6.656 41.984 0l398.848 200.704c14.848 7.68 33.28 2.048 40.96-12.8 0-0.512 0.512-0.512 0.512-1.024 7.68-15.36 1.536-33.792-13.824-41.472l-433.664-218.112c-4.096-1.536-8.704-2.56-13.824-3.072z"  horiz-adv-x="1024" />

    
    <glyph glyph-name="caigoushenpi" unicode="&#58980;" d="M945.152 751.616c-17.92 17.92-40.448 27.648-64 27.648h-71.68c-12.288 56.32-62.976 96.768-119.808 96.768H325.12c-58.368 0-108.544-40.96-119.296-96.768H132.608c-23.04 0-45.056-9.216-62.464-26.624-22.528-22.016-34.816-54.272-34.816-88.064v-645.632c0-63.488 44.032-115.2 98.304-115.2h748.032c54.272 0 98.304 51.712 98.304 115.712V664.064c-0.512 33.28-12.8 65.536-34.816 87.552zM98.304 664.064c0 31.232 18.432 52.224 34.816 52.224h75.776c16.896-51.2 62.976-84.992 116.224-84.992h364.032c53.76 0 100.352 34.304 116.224 84.992h75.776c16.896 0 34.816-21.504 34.816-52.224v-650.24h0.512c-2.048-28.16-18.944-47.104-34.816-47.104H133.12c-16.896 0-34.816 21.504-34.816 52.224v645.12z m650.24 78.848c-5.632-28.672-29.184-49.152-56.832-49.152H321.024c-27.648 1.536-50.176 21.504-54.784 48.128v22.016c4.608 28.672 28.672 49.152 56.32 49.152h370.688c27.136-1.024 49.664-20.992 54.784-48.64v-21.504h0.512zM476.672 155.136c6.144-5.632 14.336-8.704 22.528-8.704 8.192 0 16.896 3.072 23.04 9.216l1.536 1.536L732.16 406.016l2.56 2.56c5.12 6.656 7.168 15.872 6.144 24.064-1.024 8.704-5.632 16.896-12.288 22.016-14.336 10.24-34.304 7.68-44.544-5.632L496.64 225.28l-137.728 134.656c-5.632 5.632-14.336 9.216-22.528 9.216-8.192 0-16.896-3.072-22.528-9.216l-0.512-0.512c-12.288-12.8-11.776-32.768 0.512-46.08l162.816-158.208z"  horiz-adv-x="1024" />

    
    <glyph glyph-name="biaozhunjingfei" unicode="&#58981;" d="M948.736 584.192l-350.72 245.76c-23.04 18.944-49.664 28.672-77.312 28.672-35.328 0-66.048-16.384-83.456-30.72L65.024 569.344C47.104 558.08 19.456 534.528 27.136 504.832c5.12-20.48 23.04-32.256 54.272-34.304h54.272v-436.736c0-57.856 44.032-104.448 98.304-104.448H522.24c8.192 0 16.384 3.584 22.016 9.728 6.656 6.144 10.24 13.824 10.24 22.528v193.536h122.88c16.896 0 30.208 13.824 30.208 30.72s-13.312 30.72-30.208 30.72h-122.88v51.2h122.88c16.896 0 30.208 13.824 30.208 30.72s-13.312 30.72-30.208 30.72h-81.408l88.064 95.232c11.264 12.288 10.752 31.744-1.536 43.008-11.776 11.264-31.744 10.24-43.008-1.536l-115.2-125.952L412.672 465.92c-10.752 12.288-30.72 13.312-42.496 2.048-12.288-11.264-13.312-30.72-2.048-43.008l85.504-96.768h-81.92c-16.384 0-30.208-13.824-30.208-30.72s13.312-30.72 30.208-30.72h122.88v-51.2h-122.88c-16.384 0-30.208-13.824-30.208-30.72s13.312-30.72 30.208-30.72h122.88V-10.24H234.496c-20.992 0-37.888 19.456-37.888 43.52V496.64c0 1.024 0 2.048-0.512 3.584v1.024c0 8.192-3.072 15.872-9.216 22.016-5.632 5.632-13.312 8.704-20.992 8.704h-50.688l356.864 248.32c0.512 0.512 1.536 1.024 2.048 1.536 2.048 1.536 19.968 17.408 44.544 17.408 14.336 0 28.16-5.12 41.984-16.384l352.256-246.784c3.072-2.56 6.656-5.12 10.24-8.704l-56.832-0.512c-16.896 0-30.208-13.824-30.208-30.72v-462.336c0-24.064-16.896-43.008-37.888-43.008h-163.84c-16.896 0-30.208-13.824-30.208-30.72s13.312-30.72 30.208-30.72h163.84c53.76 0 98.304 47.104 98.304 104.448V465.408h30.72c37.888 0 60.928 11.776 68.096 34.816 12.288 34.304-23.552 67.584-46.592 83.968z"  horiz-adv-x="1024" />

    
    <glyph glyph-name="shenhe" unicode="&#58982;" d="M838.144 268.288h-130.56c-7.68 5.12-14.336 11.264-20.992 17.92-26.624 27.648-28.16 50.688-27.648 59.904v6.144c0 2.56 4.096 15.36 14.848 33.28 4.096 6.656 8.192 13.824 12.8 20.48 9.728 14.848 20.48 29.184 31.232 42.496 37.888 45.568 58.88 102.912 58.88 162.304 0 138.752-112.128 252.928-254.976 260.096h-19.456c-143.36-7.168-256-121.344-256-260.096 0-59.904 20.992-117.76 59.392-163.328l2.048-2.56c10.24-13.312 20.48-27.136 29.696-40.96 18.944-29.184 26.624-48.128 26.624-51.712v-6.144c0.512-8.704-1.024-31.744-26.112-58.88l-1.536-1.536c-6.144-6.144-12.8-12.288-20.992-17.408H184.832c-87.04 0-125.44-33.792-125.44-110.08v-169.984c0-24.064 9.216-46.592 26.624-63.488 16.896-16.896 39.424-26.112 63.488-26.112l724.48 1.536c49.664 0 89.6 40.448 89.6 90.112V158.72c0 75.264-38.4 109.568-125.44 109.568zM125.952-12.288v169.984c0 20.48 2.56 30.208 9.728 35.84 7.68 5.632 21.504 8.192 49.152 8.192h150.016l8.192 5.12c14.848 9.216 28.672 20.48 40.96 32.768 43.52 44.544 47.616 88.064 46.592 110.08 1.024 22.528-10.24 50.176-37.376 91.136-11.264 17.408-23.552 33.792-36.864 50.176-28.16 33.792-43.52 76.288-43.52 119.808 0 103.424 83.968 188.416 191.488 193.536h15.872c106.496-5.12 189.952-90.112 189.952-193.024 0-44.032-15.36-86.528-43.52-120.32-12.288-15.36-24.064-31.744-35.328-48.128-5.12-7.68-10.24-15.872-14.848-23.552-17.408-30.208-24.576-50.688-24.064-69.12-1.024-22.016 3.072-65.536 46.592-110.08 12.288-12.288 26.112-23.552 40.96-32.768l8.192-5.12h150.528c53.248 0 58.368-7.68 58.368-44.032V-10.24c0-6.144-2.56-12.288-6.656-16.384-4.096-4.096-10.24-6.656-16.384-6.656l-724.48-1.536c-6.144 0-12.288 2.56-16.384 6.656-4.608 3.584-7.168 9.728-7.168 15.872zM336.896 105.984h349.696v-66.56H336.896v66.56z"  horiz-adv-x="1024" />

    
    <glyph glyph-name="zichanyijiaoguanli" unicode="&#58944;" d="M963.915747 538.062187s0 0.513541 0 0l-230.579739 263.446339c-10.784353 12.838516-26.704112 21.055165-43.650953 21.055165h-0.51354c-16.946841 0-33.38014-7.703109-43.650953-21.055165-10.270812-12.324975-15.919759-27.731194-15.91976-43.650953v-110.924775h-113.492477c-16.4333 0-29.271815-12.838516-29.271815-29.271815s12.838516-29.271815 29.271815-29.271815h142.764293c7.703109 0 15.406219 3.081244 20.541625 8.216649 5.648947 5.648947 8.21665 12.838516 8.21665 20.541625V758.884654c0 2.054162 0.513541 3.594784 1.027081 4.108325L918.724173 500.573721c2.567703-2.567703 2.567703-8.730191 0-11.811434l-229.552658-262.932799c-1.027081 1.540622-1.027081 2.567703-1.027082 4.621866V383.486459c0 7.703109-2.567703 15.406219-8.21665 20.541625-5.648947 5.648947-12.838516 8.21665-20.541625 8.21665H395.939819v123.249749c0 35.434303-26.704112 64.706118-59.570712 64.706119-16.946841 0-32.8666-7.703109-44.164493-20.541625L63.165496 315.699097l-0.51354-0.51354c-21.055165-25.677031-20.541625-62.651956 0.51354-87.815447L292.718154-31.967904c10.784353-12.838516 26.704112-21.055165 43.650953-21.055165h0.513541c16.4333 0 32.353059 7.703109 44.164493 21.055165 10.270812 11.811434 15.406219 27.217653 15.406219 43.650953v109.897693h115.54664c16.4333 0 29.271815 12.838516 29.271815 29.271816s-12.838516 29.271815-29.271815 29.271815H366.154463c-16.4333 0-29.271815-12.838516-29.271815-29.271815v-139.169509c0-1.540622-0.513541-2.567703-1.027081-4.108325l-229.039118 258.824474c-2.567703 2.567703-2.567703 8.730191 0 11.811434l228.525577 262.932798c0.513541-1.540622 1.027081-3.081244 1.027081-4.621865v-152.521565c0-16.4333 12.838516-29.271815 29.271816-29.271815h263.959879v-122.736209c0-35.434303 26.704112-64.706118 59.570713-64.706118 16.946841 0 32.8666 7.703109 43.650952 20.541624l230.066199 263.446339 0.513541 0.513541c20.541625 24.136409 20.541625 61.111334 0.51354 86.274825z"  horiz-adv-x="1027" />

    
    <glyph glyph-name="Group-" unicode="&#59046;" d="M762.24 389.12a32 32 0 0 0-46.08 44.16l55.68 58.24a125.76 125.76 0 0 1-12.16 171.2c-48.32 50.24-119.68 54.72-160 12.48L444.16 512a125.76 125.76 0 0 1 12.16-171.2 32 32 0 0 0 0-45.12 32 32 0 0 0-45.44 0 189.44 189.44 0 0 0-12.16 259.52l155.52 162.24c66.88 69.76 180.48 64 252.8-12.8a189.44 189.44 0 0 0 11.2-256.64zM229.76 378.88a32 32 0 0 0 46.08-44.16l-55.68-58.24a125.76 125.76 0 0 1 12.16-171.2c48.32-50.24 119.68-54.72 160-12.48l155.52 163.2a125.76 125.76 0 0 1-12.16 171.2 32 32 0 0 0 0 45.12 32 32 0 0 0 45.44 0 189.44 189.44 0 0 0 12.16-259.52l-155.52-162.24c-66.88-69.76-180.48-64-252.8 12.8A189.44 189.44 0 0 0 173.76 320z"  horiz-adv-x="1024" />

    
    <glyph glyph-name="mima" unicode="&#58894;" d="M836 478h-13.9c-6 73.3-37.5 141.4-90.1 194-58.8 58.8-136.9 91.2-220.1 91.2s-161.2-32.4-220-91.2c-52.6-52.6-84-120.7-90.1-194H188c-49.6 0-90-40.4-90-90v-327.3c0-49.6 40.4-90 90-90h648c49.6 0 90 40.4 90 90V388c0 49.6-40.4 90-90 90zM334.3 629.6c47.5 47.5 110.5 73.6 177.7 73.6s130.2-26.1 177.7-73.6c41.3-41.3 66.4-94.3 72.2-151.6H262.1c5.9 57.2 31 110.3 72.2 151.6zM866 60.700000000000045c0-16.5-13.5-30-30-30H188c-16.5 0-30 13.5-30 30V388c0 16.5 13.5 30 30 30h648c16.5 0 30-13.5 30-30v-327.3zM512 339.29999999999995c-33.1 0-60-26.9-60-60 0-22.2 12.1-41.6 30-52v-28.5c0-16.5 13.5-30 30-30s30 13.5 30 30v28.5c17.9 10.4 30 29.7 30 52 0 33.1-26.9 60-60 60z"  horiz-adv-x="1024" />

    
    <glyph glyph-name="wode" unicode="&#58904;" d="M511 266.29999999999995c-70.8 0-137.3 27.6-187.4 77.6C273.5 394 246 460.5 246 531.3c0 70.8 27.6 137.3 77.6 187.4 50.1 50.1 116.6 77.6 187.4 77.6s137.3-27.6 187.4-77.6c50.1-50.1 77.6-116.6 77.6-187.4 0-70.8-27.6-137.3-77.6-187.4-50.1-50-116.6-77.6-187.4-77.6z m0 470.1c-113.1 0-205-92-205-205 0-113.1 92-205 205-205s205 92 205 205-91.9 205-205 205zM191.5 0.8999999999999773c-1.9 0-3.8 0.2-5.7 0.5-16.3 3.1-26.9 18.9-23.8 35.1 15.4 80 58.5 152.9 121.4 205.3 31.3 26.1 66.4 46.4 104.4 60.5 39.4 14.5 80.8 21.9 123.1 21.9s83.8-7.4 123.1-21.9c38-14 73.2-34.4 104.4-60.5 62.9-52.5 106-125.4 121.4-205.3 3.1-16.3-7.5-32-23.8-35.1-16.3-3.1-32 7.5-35.1 23.8C774.3 163.79999999999995 652.4 264.29999999999995 511 264.29999999999995c-141.4 0-263.3-100.6-290.1-239.1-2.7-14.3-15.3-24.3-29.4-24.3z"  horiz-adv-x="1024" />

    
    <glyph glyph-name="riqi" unicode="&#58971;" d="M791.272727 686.545455h-116.363636V709.818182a23.272727 23.272727 0 0 1-46.545455 0v-23.272727H395.636364V709.818182a23.272727 23.272727 0 0 1-46.545455 0v-23.272727h-116.363636a93.090909 93.090909 0 0 1-93.090909-93.09091v-488.727272a93.090909 93.090909 0 0 1 93.090909-93.090909h558.545454a93.090909 93.090909 0 0 1 93.090909 93.090909V593.454545a93.090909 93.090909 0 0 1-93.090909 93.09091zM186.181818 593.454545a46.545455 46.545455 0 0 0 46.545455 46.545455h116.363636v-23.272727a23.272727 23.272727 0 0 1 46.545455 0v23.272727h232.727272v-23.272727a23.272727 23.272727 0 0 1 46.545455 0v23.272727h116.363636a46.545455 46.545455 0 0 0 46.545455-46.545455v-69.818181H186.181818z m651.636364-488.727272a46.545455 46.545455 0 0 0-46.545455-46.545455H232.727273a46.545455 46.545455 0 0 0-46.545455 46.545455V477.090909h651.636364zM302.545455 337.45454500000005h139.636363a23.272727 23.272727 0 0 1 0 46.545455h-139.636363a23.272727 23.272727 0 0 1 0-46.545455zM302.545455 197.81818199999998h139.636363a23.272727 23.272727 0 0 1 0 46.545454h-139.636363a23.272727 23.272727 0 0 1 0-46.545454zM581.818182 337.45454500000005h139.636363a23.272727 23.272727 0 0 1 0 46.545455h-139.636363a23.272727 23.272727 0 0 1 0-46.545455zM581.818182 197.81818199999998h139.636363a23.272727 23.272727 0 0 1 0 46.545454h-139.636363a23.272727 23.272727 0 0 1 0-46.545454z"  horiz-adv-x="1024" />

    
    <glyph glyph-name="base_itemxiangmuguanli" unicode="&#58906;" d="M816.128 232.96000000000004H410.624c-14.336-0.512-25.088-11.264-25.6-25.6 0-13.824 11.776-25.6 25.6-25.6h405.504c14.336 0.512 25.088 11.264 25.6 25.6-0.512 13.824-11.776 25.088-25.6 25.6zM238.08 246.784c-22.016 0-39.424-17.408-39.936-39.936 0-22.016 17.92-39.936 39.936-39.936s39.936 17.92 39.936 39.936-17.92 39.936-39.936 39.936zM238.08 464.384c-21.504 0-39.424-17.92-39.936-39.936 0-22.016 17.92-39.936 39.936-39.936s39.936 17.92 39.936 39.936-17.92 39.936-39.936 39.936zM817.664 446.976H410.624c-14.336-0.512-25.088-11.264-25.6-25.6 0-13.824 11.776-25.6 25.6-25.6h405.504c14.336 0.512 25.088 11.264 25.6 25.6 0.512 13.312-10.24 25.088-24.064 25.6zM932.352 679.936h-280.064l-4.608 12.8c-16.384 46.08-58.88 123.904-158.72 127.488H98.304C64 820.736 35.84 793.6 35.328 759.296v-760.32c0-33.792 28.16-60.928 62.976-60.928h835.072c33.792 0 61.44 27.136 61.952 60.928V619.008c-0.512 34.304-28.672 61.44-62.976 60.928zM875.52-4.096000000000004H178.176c-68.608 0-77.312 4.096-77.312 77.312V620.0319999999999H870.4c28.16 0 45.568-4.096 54.272-12.8 9.728-10.24 9.728-26.624 9.216-49.152v-495.616c-0.512-66.56-3.584-66.56-58.368-66.56zM157.696 768.512H422.912c105.984 0 129.024-25.088 146.432-55.296l12.8-31.744h-481.28V732.16c0 16.384 2.048 25.088 7.168 30.208 7.168 7.168 22.528 6.656 49.664 6.144z"  horiz-adv-x="1029" />

    


  </font>
</defs>
</svg>
